<svg xmlns:xlink="http://www.w3.org/1999/xlink" preserveAspectRatio="xMidYMid meet" data-bbox="20 38 160 124" viewBox="20 38 160 124" height="200" width="200" xmlns="http://www.w3.org/2000/svg" data-type="color" role="presentation" aria-hidden="true">
    <g>
        <path d="M178.926 74.038l-4.132-14.651c-4.428-15.698-21.295-24.765-37.601-20.21L42.645 65.583c-10.09 2.818-18.008 10.291-21.181 19.992a2.128 2.128 0 0 0 1.373 2.685 2.142 2.142 0 0 0 2.698-1.366c2.729-8.344 9.559-14.777 18.268-17.209l94.548-26.406c14.029-3.918 28.532 3.823 32.321 17.259l4.132 14.651c3.79 13.435-4.544 27.554-18.576 31.473L93.16 124.276a2.13 2.13 0 0 0-1.551 2.237L75.9 154.343l-5.846-20.728a2.092 2.092 0 0 0-.068-.654 2.143 2.143 0 0 0-2.64-1.475l-4.986 1.393c-6.811 1.903-13.929 1.146-20.041-2.129-6.087-3.262-10.448-8.635-12.28-15.129l-4.133-14.655c-.039-.137-.651-2.313-.7-2.493a2.14 2.14 0 0 0-2.615-1.517 2.129 2.129 0 0 0-1.525 2.602c.038.142.68 2.424.719 2.563l4.133 14.651c2.148 7.618 7.253 13.914 14.372 17.729a30.896 30.896 0 0 0 14.628 3.667 31.96 31.96 0 0 0 8.6-1.187l2.818-.787 6.841 24.252A2.136 2.136 0 0 0 75.239 162c.766 0 1.484-.41 1.866-1.087l18.58-32.916 61.702-17.233c16.303-4.554 25.966-21.029 21.539-36.726z" fill="#5B5956" data-color="1"></path>
        <path d="M22.141 94.813c1.181 0 2.14-.953 2.141-2.128v-.161c.012-.124.013-.25.003-.379-.092-1.139-1.079-2.025-2.221-1.972-.484.019-2.062.256-2.064 2.508a2.135 2.135 0 0 0 2.139 2.132h.002z" fill="#5B5956" data-color="1"></path>
        <path d="M39.786 95.641c-1.099-2.331-2.081-2.653-3.253-2.107-1.436.671-1.387 1.657-.377 3.801l10.314 21.893c1.117 2.37 1.969 2.708 3.178 2.143 1.474-.688 1.41-1.805.452-3.837l-4.54-9.636 14.112-6.749 4.622 9.81c1.063 2.257 2.063 2.617 3.235 2.071 1.399-.653 1.405-1.619.394-3.763l-10.35-21.969c-1.152-2.444-2.1-2.598-3.159-2.105-1.361.635-1.463 1.691-.47 3.797l4.183 8.878-14.177 6.614-4.164-8.841z" fill="#5B5956" data-color="1"></path>
        <path d="M85.94 103.382c9.809-2.74 11.351-11.413 9.332-18.573-1.873-6.641-7.471-13.879-17.761-11.005-10.774 3.009-11.283 12.428-9.534 18.628 1.624 5.76 6.747 14.082 17.963 10.95zM72.57 82.309c1.186-2.1 3.103-4.179 5.877-4.953 3.337-.932 10.329-.116 12.938 8.747 2.805 9.529-3.242 12.867-6.579 13.799-5.266 1.471-10.78-1.089-12.754-8.09-.756-2.681-1.239-6.509.518-9.503z" fill="#5B5956" data-color="1"></path>
        <path d="M107.238 100.071l13.276-1.057c1.291-.102 2.796-.139 2.663-1.795-.134-1.656-1.669-1.492-2.918-1.393l-12.611 1.004-1.905-23.689c-.207-2.567-.929-3.217-2.302-3.108-1.582.126-1.883 1.066-1.693 3.427l1.895 23.565c.239 2.981.599 3.286 3.595 3.046z" fill="#5B5956" data-color="1"></path>
        <path d="M144.822 81.311c1.275 1.262 1.89 1.948 3.155 1.405 1.112-.477 1.427-1.744 1.113-2.468-.248-.573-.637-.948-1.435-1.738l-18.269-17.497c-.709-.691-1.72-1.66-2.286-1.915-.581-.293-1.48-.269-2.169.027-1.764.757-1.706 2.044-1.624 4.542l.606 25.213c.036 1.025.042 1.566.29 2.138.33.763 1.461 1.273 2.458.845 1.266-.543 1.186-1.459 1.133-3.156l-.269-7.124 12.23-5.249 5.067 4.977zm-17.552-3.556l-.576-14.456 10.285 10.188-9.709 4.268z" fill="#5B5956" data-color="1"></path>
        <path d="M156.636 80.475a2.236 2.236 0 0 0 2.562 1.861c1.21-.189 2.06-1.348 1.87-2.551a2.236 2.236 0 0 0-2.563-1.861 2.228 2.228 0 0 0-1.869 2.551z" fill="#5B5956" data-color="1"></path>
        <path d="M157.626 59.451c-.093-.847-.604-4.629-.897-5.447-.496-1.32-1.629-1.431-2.193-1.342-.524.081-1.574.491-1.636 1.939-.035.827.631 4.543.818 5.459l2.013 11.202c.276 1.231.459 3.036 2.186 2.646 1.193-.269 1.053-1.437.939-2.692l-1.23-11.765z" fill="#5B5956" data-color="1"></path>
    </g>
</svg>