<svg xmlns:xlink="http://www.w3.org/1999/xlink" preserveAspectRatio="xMidYMid meet" data-bbox="22.001 43.19 155.998 116.008" xmlns="http://www.w3.org/2000/svg" width="200" height="200" viewBox="22.001 43.19 155.998 116.008" data-type="color" role="presentation" aria-hidden="true"><defs><style>#comp-l9nc6p38 svg [data-color="1"] {fill: #709DD1;}
#comp-l9nc6p38 svg [data-color="2"] {fill: #FFFFFF;}</style></defs>
    <g>
        <path fill="#709DD1" d="M177.999 80.959l-55.036-15.52c-.003.01-.002.019-.005.028-1.859 6.591-8.709 10.428-15.3 8.569-6.592-1.859-10.428-8.709-8.569-15.3l.011-.027L44.064 43.19l-4.722 16.745L173.27 97.729l4.729-16.77z" data-color="1"></path>
        <path fill="#709DD1" d="M22.001 121.429l55.036 15.52c.003-.01.002-.019.005-.029 1.859-6.591 8.709-10.428 15.3-8.569 6.591 1.859 10.428 8.709 8.569 15.3l-.011.027 55.036 15.52 4.355-15.443-133.919-37.826-4.371 15.5z" data-color="1"></path>
        <path d="M26.643 104.966l133.92 37.826 12.436-44.101L39.07 60.897l-12.427 44.069z" fill="#709DD1" data-color="1"></path>
        <path d="M39.336 59.94l133.936 37.766-.271.963L39.064 60.902l.272-.962z" fill="#FFFFFF" data-color="2"></path>
        <path d="M26.64 104.976l133.92 37.825-.272.963-133.92-37.825.272-.963z" fill="#FFFFFF" data-color="2"></path>
        <path fill="#FFFFFF" d="M69.783 83.893l7.834 2.195-.69 2.437-4.727-1.326-1.733 6.104 3.706 1.04-.693 2.436-3.706-1.039-2.674 9.423-3.107-.87 5.79-20.4z" data-color="2"></path>
        <path fill="#FFFFFF" d="M84.047 87.889l3.131.877-4.245 14.953c-.18.637-.298 1.176-.354 1.615-.056.44-.051.806.019 1.096.067.291.199.519.388.688.189.17.436.297.739.383.303.085.588.105.847.062.258-.044.493-.17.714-.379.222-.209.427-.515.625-.915.194-.4.382-.92.562-1.558l4.245-14.953 3.097.867-4.01 14.129c-.284.996-.605 1.826-.966 2.489-.359.665-.74 1.198-1.141 1.601-.399.404-.807.698-1.227.882a4.239 4.239 0 01-2.406.319 9.223 9.223 0 01-.999-.216 9.144 9.144 0 01-.962-.334 4.084 4.084 0 01-.991-.581 4.036 4.036 0 01-.862-.933c-.258-.373-.451-.835-.581-1.386-.128-.552-.17-1.202-.124-1.951.042-.748.208-1.623.493-2.626l4.008-14.129z" data-color="2"></path>
        <path fill="#FFFFFF" d="M101.67 92.826l2.521.707 1.09 15.043.072.02c.068-.325.133-.688.205-1.09.07-.4.164-.855.273-1.361.109-.507.24-1.079.395-1.715.153-.635.342-1.347.567-2.135l2.112-7.441 2.783.78-5.79 20.399-2.545-.712-1.168-14.678-.098-.027c-.078.364-.155.762-.234 1.191-.078.429-.181.93-.311 1.505a97.055 97.055 0 01-.475 2.002 85.241 85.241 0 01-.726 2.691L98.64 114l-2.76-.774 5.79-20.4z" data-color="2"></path>
        <path fill="#FFFFFF" d="M120.488 109.984a5.346 5.346 0 01-1.322-.576 2.93 2.93 0 01-1.035-1.097c-.264-.473-.421-1.084-.457-1.829-.04-.746.1-1.672.413-2.778l.364-1.279c.204-.724.439-1.335.699-1.834.263-.498.545-.907.847-1.226a3.204 3.204 0 011.904-1.027c.326-.046.642-.051.956-.016.314.037.616.095.902.176.275.076.552.176.832.305a3.304 3.304 0 011.459 1.259c.19.299.329.662.415 1.09.084.428.108.925.07 1.489-.039.565-.164 1.214-.371 1.946l-.364 1.279c-.309 1.09-.686 1.94-1.128 2.552-.439.612-.903 1.052-1.39 1.32a3.078 3.078 0 01-1.462.408 4.755 4.755 0 01-1.332-.162zm10.464-9.201l2.172.608-11.365 19.083-2.185-.612 11.378-19.079zm-9.902 7.309c.505.142.917.024 1.242-.355.323-.378.614-1.024.875-1.94l.657-2.317c.262-.923.356-1.633.28-2.126-.076-.494-.366-.811-.871-.953-.526-.148-.959-.032-1.297.347-.335.377-.636 1.029-.898 1.952l-.657 2.317c-.261.916-.345 1.62-.256 2.113.089.494.399.814.925.962zm5.856 7.031c.309-1.091.679-1.933 1.108-2.52.431-.589.887-1.007 1.368-1.254a2.963 2.963 0 011.453-.355c.49.013.945.078 1.37.197.273.076.55.178.834.304.284.127.548.295.797.501.249.207.468.459.658.758.192.298.329.662.415 1.09.088.427.111.925.07 1.489-.038.566-.163 1.215-.371 1.947l-.362 1.278c-.209.733-.447 1.352-.715 1.861-.27.509-.558.927-.863 1.255a3.73 3.73 0 01-.946.754c-.325.176-.65.294-.975.358-.324.064-.643.08-.955.048a5.052 5.052 0 01-.863-.158 5.613 5.613 0 01-.893-.334 3.415 3.415 0 01-.81-.529 3.169 3.169 0 01-.642-.799 3.43 3.43 0 01-.386-1.125 6.216 6.216 0 01-.044-1.515c.048-.575.178-1.232.389-1.973l.363-1.278zm1.92 2.587c-.259.916-.347 1.62-.256 2.113.089.494.397.814.926.963.503.141.917.022 1.24-.356s.616-1.024.875-1.94l.657-2.316c.264-.924.356-1.633.28-2.127-.076-.494-.366-.81-.869-.952-.529-.149-.962-.034-1.297.345-.337.379-.634 1.029-.898 1.953l-.658 2.317z" data-color="2"></path>
    </g>
</svg>