<svg xmlns:xlink="http://www.w3.org/1999/xlink" preserveAspectRatio="xMidYMid meet" data-bbox="38.5 32 123 136" viewBox="38.5 32 123 136" height="200" width="200" xmlns="http://www.w3.org/2000/svg" data-type="color" role="presentation" aria-hidden="true"><defs><style>#comp-l9qc5w59 svg [data-color="1"] {fill: #8C84FA;}
#comp-l9qc5w59 svg [data-color="2"] {fill: #709DD1;}</style></defs>
    <g>
        <path d="M118.322 141.747h-10.098c0 2.268.981 4.247 2.444 5.34v7.162h5.208v-7.162c1.464-1.093 2.446-3.073 2.446-5.34z" fill="#8C84FA" data-color="1"></path>
        <path d="M46.964 119.819l-2.484-.612 1.394-2.163a.771.771 0 0 0-.236-1.07.781.781 0 0 0-1.076.234l-1.395 2.163-1.599-1.985a.783.783 0 0 0-1.096-.121.772.772 0 0 0-.122 1.089l1.611 2-2.362.9a.771.771 0 0 0-.448 1 .78.78 0 0 0 1.007.446l2.371-.903.167 2.517c.027.41.37.724.777.724.018 0 .034 0 .052-.002a.777.777 0 0 0 .727-.824l-.166-2.508 2.502.617a.78.78 0 0 0 .945-.565.774.774 0 0 0-.569-.937z" fill="#8C84FA" data-color="1"></path>
        <path fill="#8C84FA" d="M141.794 33.37c0 .757-.617 1.37-1.379 1.37a1.375 1.375 0 0 1-1.379-1.37c0-.757.617-1.37 1.379-1.37s1.379.613 1.379 1.37z" data-color="1"></path>
        <path fill="#709DD1" d="M41.258 138.731c0 .757-.617 1.37-1.379 1.37a1.375 1.375 0 0 1-1.379-1.37c0-.757.617-1.37 1.379-1.37s1.379.613 1.379 1.37z" data-color="2"></path>
        <path d="M113.273 153.087c-11.324 0-20.537 6.169-20.537 13.751V168h41.074v-1.162c0-7.582-9.213-13.751-20.537-13.751zm-18.105 12.59c.929-5.758 8.695-10.266 18.105-10.266 5.999 0 11.321 1.837 14.638 4.657h-5.201c-.794 0-1.437.639-1.437 1.428 0 .789.643 1.428 1.437 1.428h7.612l.03-.003c.511.875.871 1.796 1.026 2.755h-36.21z" fill="#709DD1" data-color="2"></path>
        <path d="M118.106 160.068h-1.89c-.794 0-1.437.639-1.437 1.428 0 .789.643 1.428 1.437 1.428h1.89c.794 0 1.437-.639 1.437-1.428 0-.789-.643-1.428-1.437-1.428z" fill="#709DD1" data-color="2"></path>
        <path d="M149.281 82.627l.043.466c.027.312.052.624.072.936a1.166 1.166 0 0 0 1.243 1.082 1.164 1.164 0 0 0 1.09-1.236 48.529 48.529 0 0 0-.077-.988l-.046-.491a1.165 1.165 0 0 0-1.279-1.041 1.164 1.164 0 0 0-1.046 1.272z" fill="#709DD1" data-color="2"></path>
        <path d="M144.889 67.656a42.104 42.104 0 0 1 3.898 11.494 1.169 1.169 0 0 0 1.361.934 1.161 1.161 0 0 0 .939-1.352 44.374 44.374 0 0 0-4.113-12.126 1.173 1.173 0 0 0-1.571-.511 1.157 1.157 0 0 0-.514 1.561z" fill="#709DD1" data-color="2"></path>
        <path d="M160.877 111.344a1.172 1.172 0 0 0-1.58.484 53.935 53.935 0 0 1-9.095 12.395l-5.771-5.733c17.445-17.921 17.273-46.592-.537-64.287-8.718-8.661-20.308-13.431-32.636-13.431-12.067 0-23.42 4.58-32.071 12.896l-5.77-5.733A54.28 54.28 0 0 1 85.892 38.9c.571-.3.789-1.002.487-1.57a1.172 1.172 0 0 0-1.58-.484 56.63 56.63 0 0 0-13.035 9.447l-7.036-6.991a.782.782 0 0 0-1.102 0 .771.771 0 0 0 0 1.095l7.04 6.994c-21.536 21.987-21.365 57.272.537 79.032 11.045 10.973 25.548 16.458 40.057 16.458 14.262 0 28.521-5.318 39.492-15.925l7.041 6.995a.78.78 0 0 0 1.102 0 .77.77 0 0 0 0-1.095l-7.037-6.991a56.233 56.233 0 0 0 9.509-12.953 1.16 1.16 0 0 0-.49-1.568zm-15.8 2.955c.531-2.757.999-6.811.623-11.745-.637-8.366-3.955-20.851-16.033-33.121l13.112-13.026c15.547 16.001 16.317 41.005 2.298 57.892zm-68-43.859c.637 8.366 3.955 20.851 16.033 33.121l-13.374 13.287C64.09 100.746 63.415 75.53 77.711 58.639c-.536 2.758-1.013 6.834-.634 11.801zm17.136 34.216c13.522 13.138 27.427 16.007 36.977 16.007 3.382 0 6.208-.359 8.287-.748-17.001 14.245-42.415 13.588-58.638-1.972l13.374-13.287zm1.106-1.099l15.938-15.835 30.337 30.141c-5.162 1.378-26.085 5.3-46.275-14.306zm17.041-16.93l16.2-16.095c19.993 20.324 15.659 41.448 14.339 46.188l-.122.127-30.417-30.22zm-1.103-43.531c11.443 0 22.209 4.339 30.418 12.216l-13.114 13.029C110.297 50.596 91.332 51.587 83.35 53.067c7.837-6.455 17.599-9.971 27.907-9.971zM80.969 55.189c4.768-1.318 26.005-5.644 46.489 14.248l-16.2 16.095-30.419-30.221.13-.122zm-1.15 1.299l30.336 30.139-15.938 15.835c-19.704-20.03-15.779-40.838-14.398-45.974zm-6.965 68.294c-20.99-20.854-21.161-54.666-.537-75.747l5.767 5.73c-17.445 17.921-17.274 46.592.537 64.288 8.998 8.94 20.817 13.409 32.636 13.409 11.576 0 23.146-4.3 32.071-12.876l5.767 5.73c-21.218 20.489-55.25 20.32-76.241-.534z" fill="#709DD1" data-color="2"></path>
        <path d="M63.342 138.443h-.009l-.105-.001a.389.389 0 0 1-.385-.392.39.39 0 0 1 .39-.383h.005l.097.001h.008c.625 0 1.339-.086 2.124-.256a.388.388 0 1 1 .166.757c-.841.182-1.612.274-2.291.274zm-1.645-.234a.381.381 0 0 1-.123-.02 3.462 3.462 0 0 1-1.382-.827 3.336 3.336 0 0 1-.592-.806.386.386 0 0 1 .165-.523.391.391 0 0 1 .526.163c.123.233.275.441.452.618.285.283.647.498 1.076.639a.387.387 0 1 1-.122.756zm5.355-.429a.386.386 0 0 1-.115-.757 27.651 27.651 0 0 0 2.169-.775.39.39 0 0 1 .507.213.386.386 0 0 1-.215.504c-.784.316-1.535.584-2.231.798a.382.382 0 0 1-.115.017zm3.633-1.399a.388.388 0 0 1-.355-.228.385.385 0 0 1 .194-.512 48.3 48.3 0 0 0 2.09-1.004.39.39 0 0 1 .524.169.386.386 0 0 1-.17.521c-.733.372-1.447.715-2.123 1.019a.379.379 0 0 1-.16.035zm-11.159-1.1a.389.389 0 0 1-.387-.348 6.98 6.98 0 0 1-.035-.692c0-.528.056-1.109.165-1.726a.39.39 0 0 1 .767.134 9.26 9.26 0 0 0-.153 1.59c.001.213.011.418.03.615a.387.387 0 0 1-.387.427zm14.644-.634a.391.391 0 0 1-.343-.202.385.385 0 0 1 .157-.525 75.32 75.32 0 0 0 2.027-1.136.39.39 0 0 1 .533.139.384.384 0 0 1-.14.529c-.7.406-1.383.789-2.048 1.148a.39.39 0 0 1-.186.047zm3.377-1.935a.39.39 0 0 1-.333-.186.385.385 0 0 1 .13-.532c.646-.39 1.306-.799 1.978-1.225a.39.39 0 0 1 .538.118.386.386 0 0 1-.118.535c-.677.43-1.342.841-1.993 1.234a.39.39 0 0 1-.202.056zm-17.544-1.251a.386.386 0 0 1-.375-.491c.196-.695.45-1.448.756-2.236a.39.39 0 0 1 .728.279 23.71 23.71 0 0 0-.733 2.166.392.392 0 0 1-.376.282zm20.839-.821a.385.385 0 0 1-.215-.71c.636-.416 1.281-.846 1.937-1.291a.392.392 0 0 1 .542.101.387.387 0 0 1-.102.538c-.658.448-1.309.881-1.947 1.299a.406.406 0 0 1-.215.063zm3.224-2.177a.386.386 0 0 1-.224-.704c.626-.435 1.26-.883 1.902-1.343a.39.39 0 0 1 .544.087.385.385 0 0 1-.088.54c-.645.462-1.282.913-1.911 1.35a.39.39 0 0 1-.223.07zm-22.724-.635a.387.387 0 0 1-.357-.543c.301-.686.639-1.399 1.003-2.121a.394.394 0 0 1 .523-.173c.193.096.27.329.174.52-.358.71-.69 1.412-.986 2.085a.39.39 0 0 1-.357.232zm25.891-1.625a.387.387 0 0 1-.231-.7c.617-.451 1.241-.914 1.87-1.386a.39.39 0 0 1 .546.076.385.385 0 0 1-.075.542c-.633.475-1.259.939-1.879 1.392a.39.39 0 0 1-.231.076zm-24.183-1.855a.387.387 0 0 1-.344-.569c.355-.663.735-1.344 1.14-2.043a.391.391 0 0 1 .532-.143.386.386 0 0 1 .144.529c-.4.692-.776 1.365-1.127 2.022a.393.393 0 0 1-.345.204zm27.298-.474a.385.385 0 0 1-.237-.694c.61-.465 1.224-.94 1.844-1.423a.39.39 0 0 1 .547.065.386.386 0 0 1-.066.544c-.622.486-1.239.962-1.851 1.429a.393.393 0 0 1-.237.079zm3.071-2.387a.387.387 0 0 1-.242-.69c.602-.476 1.208-.962 1.819-1.455a.39.39 0 0 1 .548.056.386.386 0 0 1-.056.545c-.612.495-1.221.983-1.825 1.461a.4.4 0 0 1-.244.083zm-28.446-.507a.39.39 0 0 1-.334-.586c.391-.649.802-1.311 1.231-1.986a.393.393 0 0 1 .538-.121.386.386 0 0 1 .121.534c-.426.67-.834 1.327-1.222 1.971a.39.39 0 0 1-.334.188zm31.472-1.933a.385.385 0 0 1-.248-.686 230.01 230.01 0 0 0 1.796-1.485.393.393 0 0 1 .549.047.385.385 0 0 1-.048.546c-.604.504-1.204 1.001-1.8 1.49a.397.397 0 0 1-.249.088zm-29.404-1.349a.389.389 0 0 1-.326-.599c.418-.637.85-1.284 1.299-1.941a.392.392 0 0 1 .541-.103c.178.12.225.361.104.538-.445.653-.876 1.296-1.291 1.929a.391.391 0 0 1-.327.176zm32.393-1.138a.388.388 0 0 1-.253-.683c.588-.497 1.18-1.001 1.774-1.511a.392.392 0 0 1 .55.039.385.385 0 0 1-.04.546c-.595.512-1.188 1.017-1.778 1.516a.389.389 0 0 1-.253.093zm-30.216-2.074a.385.385 0 0 1-.32-.608c.318-.456.645-.917.977-1.382a.393.393 0 0 1 .544-.091.386.386 0 0 1 .091.54c-.331.462-.655.92-.971 1.373a.39.39 0 0 1-.321.168zm33.169-.456a.391.391 0 0 1-.293-.132.384.384 0 0 1 .037-.546c.582-.506 1.165-1.018 1.752-1.536a.39.39 0 0 1 .55.032.384.384 0 0 1-.033.546c-.588.519-1.173 1.032-1.756 1.539a.39.39 0 0 1-.257.097zm2.916-2.569a.39.39 0 0 1-.29-.128.385.385 0 0 1 .03-.547c.575-.514 1.153-1.033 1.732-1.558a.392.392 0 0 1 .55.025.385.385 0 0 1-.025.547c-.581.526-1.159 1.047-1.736 1.562a.394.394 0 0 1-.261.099zm2.883-2.608a.386.386 0 0 1-.264-.672 266.68 266.68 0 0 0 1.712-1.58.392.392 0 0 1 .551.018.387.387 0 0 1-.018.548c-.573.533-1.146 1.061-1.717 1.583a.39.39 0 0 1-.264.103zm2.85-2.641a.385.385 0 0 1-.268-.668c.563-.529 1.128-1.062 1.693-1.6a.393.393 0 0 1 .551.011c.148.154.143.4-.012.548-.566.54-1.131 1.074-1.696 1.604a.397.397 0 0 1-.268.105zm2.818-2.677a.387.387 0 0 1-.271-.666 354.73 354.73 0 0 0 1.675-1.62c.154-.15.4-.146.551.005a.385.385 0 0 1-.006.548c-.56.546-1.119 1.086-1.678 1.623a.391.391 0 0 1-.271.11zm2.787-2.709a.388.388 0 0 1-.274-.663c.409-.402.818-.807 1.227-1.213l.427-.425a.393.393 0 0 1 .552-.001.387.387 0 0 1 .001.548l-.429.426c-.41.407-.82.813-1.23 1.216a.388.388 0 0 1-.274.112zm2.753-2.739a.388.388 0 0 1-.277-.66c.55-.553 1.095-1.105 1.635-1.657a.393.393 0 0 1 .551-.008.385.385 0 0 1 .008.548c-.542.553-1.089 1.107-1.64 1.662a.388.388 0 0 1-.277.115zm2.723-2.771a.39.39 0 0 1-.271-.109.385.385 0 0 1-.009-.548c.544-.56 1.082-1.118 1.616-1.676a.392.392 0 0 1 .551-.014.386.386 0 0 1 .014.548 312.81 312.81 0 0 1-1.621 1.68.388.388 0 0 1-.28.119zm2.69-2.804a.387.387 0 0 1-.267-.106.385.385 0 0 1-.017-.547c.537-.566 1.07-1.131 1.596-1.695a.39.39 0 0 1 .55-.02c.158.145.167.39.021.547-.528.565-1.061 1.131-1.599 1.699a.39.39 0 0 1-.284.122zm2.656-2.835a.386.386 0 0 1-.287-.649c.531-.573 1.055-1.145 1.574-1.715a.393.393 0 0 1 .551-.027.386.386 0 0 1 .027.547c-.521.571-1.047 1.145-1.579 1.719a.387.387 0 0 1-.286.125zm2.619-2.868a.386.386 0 0 1-.29-.646c.523-.58 1.041-1.159 1.552-1.735a.392.392 0 0 1 .55-.034.386.386 0 0 1 .034.547c-.513.577-1.032 1.157-1.557 1.739a.382.382 0 0 1-.289.129zm2.583-2.902a.388.388 0 0 1-.294-.642 276.77 276.77 0 0 0 1.528-1.755.392.392 0 0 1 .55-.042.385.385 0 0 1 .043.546 249.68 249.68 0 0 1-1.533 1.76.392.392 0 0 1-.294.133zm2.542-2.937a.388.388 0 0 1-.298-.638c.508-.596 1.009-1.188 1.502-1.777a.393.393 0 0 1 .549-.05.385.385 0 0 1 .051.545c-.495.591-.997 1.185-1.506 1.782a.389.389 0 0 1-.298.138zm2.498-2.973a.387.387 0 0 1-.301-.633c.499-.604.991-1.204 1.475-1.8a.391.391 0 0 1 .548-.058.387.387 0 0 1 .059.545c-.485.597-.978 1.199-1.479 1.805a.392.392 0 0 1-.302.141zm2.45-3.013a.391.391 0 0 1-.242-.084.385.385 0 0 1-.063-.544c.49-.613.971-1.221 1.443-1.824a.39.39 0 0 1 .547-.068c.17.132.201.375.069.543-.473.605-.956 1.216-1.448 1.831a.394.394 0 0 1-.306.146zm2.397-3.054a.39.39 0 0 1-.31-.623c.48-.623.949-1.24 1.408-1.851a.391.391 0 0 1 .545-.079.385.385 0 0 1 .079.542c-.461.614-.931 1.233-1.413 1.859a.387.387 0 0 1-.309.152zm2.338-3.101a.386.386 0 0 1-.23-.075.385.385 0 0 1-.085-.541c.467-.634.923-1.261 1.366-1.88a.392.392 0 0 1 .543-.092.385.385 0 0 1 .092.54 159.19 159.19 0 0 1-1.372 1.889.386.386 0 0 1-.314.159zm2.265-3.151a.384.384 0 0 1-.319-.608c.453-.647.891-1.285 1.316-1.913a.391.391 0 0 1 .54-.106c.179.119.227.36.107.537-.426.632-.868 1.274-1.324 1.925a.39.39 0 0 1-.32.165zm2.182-3.211a.386.386 0 0 1-.326-.599c.435-.662.853-1.313 1.254-1.952a.393.393 0 0 1 .537-.124.386.386 0 0 1 .125.533c-.403.644-.824 1.3-1.263 1.966a.392.392 0 0 1-.327.176zm2.073-3.281a.386.386 0 0 1-.334-.586c.413-.682.803-1.348 1.172-1.999a.39.39 0 0 1 .531-.147.386.386 0 0 1 .148.528c-.372.657-.767 1.33-1.183 2.017a.392.392 0 0 1-.334.187zm1.928-3.366a.388.388 0 0 1-.344-.57c.381-.707.733-1.393 1.056-2.057a.392.392 0 0 1 .521-.18.386.386 0 0 1 .181.517 57.287 57.287 0 0 1-1.07 2.085.39.39 0 0 1-.344.205zm1.719-3.477a.386.386 0 0 1-.357-.543c.33-.742.62-1.459.863-2.13a.389.389 0 0 1 .499-.233.385.385 0 0 1 .234.495c-.25.688-.547 1.421-.883 2.18a.389.389 0 0 1-.356.231zm1.355-3.628a.386.386 0 0 1-.374-.494c.231-.804.388-1.547.467-2.208a.388.388 0 0 1 .432-.339.386.386 0 0 1 .341.43 14.827 14.827 0 0 1-.492 2.331.387.387 0 0 1-.374.28zm-18.065-1.035a.386.386 0 0 1-.205-.717c.686-.42 1.358-.82 2.014-1.2a.392.392 0 0 1 .533.14.384.384 0 0 1-.14.529c-.652.377-1.318.773-1.997 1.19a.384.384 0 0 1-.205.058zm3.361-1.961a.385.385 0 0 1-.189-.725 65.371 65.371 0 0 1 2.076-1.099.392.392 0 0 1 .524.17.386.386 0 0 1-.171.521c-.664.335-1.347.697-2.052 1.085a.384.384 0 0 1-.188.048zm15.226-.817a.388.388 0 0 1-.387-.356c-.065-.808-.301-1.457-.7-1.927a.386.386 0 0 1 .047-.546.392.392 0 0 1 .55.047c.505.596.802 1.392.88 2.365a.387.387 0 0 1-.357.417h-.033zm-11.763-.956a.386.386 0 0 1-.165-.737c.748-.35 1.476-.667 2.163-.94a.39.39 0 0 1 .507.215.386.386 0 0 1-.216.503c-.673.268-1.387.579-2.122.922a.397.397 0 0 1-.167.037zm3.604-1.471a.387.387 0 0 1-.125-.754c.818-.276 1.591-.49 2.297-.636a.387.387 0 1 1 .16.758c-.676.14-1.417.346-2.205.612a.405.405 0 0 1-.127.02zm6.1-.586a.396.396 0 0 1-.135-.024c-.577-.213-1.302-.292-2.144-.234-.211.002-.4-.146-.416-.36a.39.39 0 0 1 .362-.413c.959-.065 1.787.029 2.469.281a.387.387 0 0 1-.136.75z" fill="#8C84FA" data-color="1"></path>
    </g>
</svg>