<svg xmlns:xlink="http://www.w3.org/1999/xlink" preserveAspectRatio="xMidYMid meet" data-bbox="36 39 128 122" viewBox="36 39 128 122" height="200" width="200" xmlns="http://www.w3.org/2000/svg" data-type="color" role="presentation" aria-hidden="true"><defs><style>#comp-l9p088bs svg [data-color="1"] {fill: #093F7C;}</style></defs>
    <g>
        <path d="M164 161H97.091C63.405 161 36 133.636 36 100s27.405-61 61.091-61 61.091 27.364 61.091 61c0 20.563-10.276 39.611-27.489 50.951l-3.205-4.848c15.575-10.263 24.875-27.497 24.875-46.103 0-30.432-24.795-55.19-55.273-55.19S41.818 69.568 41.818 100s24.795 55.19 55.273 55.19H164V161z" fill="#093F7C" data-color="1"></path>
        <path d="M97.091 88.381c-9.625 0-17.455-7.818-17.455-17.429s7.83-17.429 17.455-17.429 17.455 7.818 17.455 17.429-7.83 17.429-17.455 17.429zm0-29.048c-6.416 0-11.636 5.212-11.636 11.619s5.22 11.619 11.636 11.619c6.416 0 11.636-5.212 11.636-11.619 0-6.406-5.22-11.619-11.636-11.619z" fill="#093F7C" data-color="1"></path>
        <path d="M97.091 146.476c-9.625 0-17.455-7.818-17.455-17.429s7.83-17.429 17.455-17.429 17.455 7.818 17.455 17.429-7.83 17.429-17.455 17.429zm0-29.047c-6.416 0-11.636 5.212-11.636 11.619s5.22 11.619 11.636 11.619c6.416 0 11.636-5.212 11.636-11.619s-5.22-11.619-11.636-11.619z" fill="#093F7C" data-color="1"></path>
        <path d="M68 117.429c-9.625 0-17.455-7.818-17.455-17.429S58.375 82.571 68 82.571 85.455 90.389 85.455 100 77.625 117.429 68 117.429zm0-29.048c-6.416 0-11.636 5.212-11.636 11.619s5.22 11.619 11.636 11.619S79.636 106.407 79.636 100 74.416 88.381 68 88.381z" fill="#093F7C" data-color="1"></path>
        <path d="M126.182 117.429c-9.625 0-17.455-7.818-17.455-17.429s7.83-17.429 17.455-17.429 17.455 7.818 17.455 17.429-7.83 17.429-17.455 17.429zm0-29.048c-6.416 0-11.636 5.212-11.636 11.619s5.22 11.619 11.636 11.619 11.636-5.212 11.636-11.619-5.22-11.619-11.636-11.619z" fill="#093F7C" data-color="1"></path>
        <path fill="#093F7C" d="M100 97.095v5.81h-5.818v-5.81H100z" data-color="1"></path>
    </g>
</svg>