<svg xmlns:xlink="http://www.w3.org/1999/xlink" preserveAspectRatio="xMidYMid meet" data-bbox="42.501 49.999 114.998 100.001" viewBox="42.501 49.999 114.998 100.001" height="200" width="200" xmlns="http://www.w3.org/2000/svg" data-type="color" role="presentation" aria-hidden="true"><defs><style>#comp-l9nd52iq svg [data-color="1"] {fill: #709DD1;}
#comp-l9nd52iq svg [data-color="2"] {fill: #709DD1;}</style></defs>
    <g>
        <path fill="#709DD1" d="M136.757 86.738l-12.15 15.768h16.199l12.15-15.768h-16.199z" data-color="1"></path>
        <path fill="#709DD1" d="M111.556 86.738l-12.15 15.768h16.199l12.151-15.768h-16.2z" data-color="1"></path>
        <path fill="#709DD1" d="M86.356 86.738l-12.15 15.768h16.199l12.15-15.768H86.356z" data-color="1"></path>
        <path fill="#709DD1" d="M61.156 86.738l-12.151 15.768h16.2l12.15-15.768H61.156z" data-color="1"></path>
        <path fill="#709DD1" d="M152.191 69.145l-14.058-14.111-16.069 2.039 14.058 14.111 16.069-2.039z" data-color="1"></path>
        <path fill="#709DD1" d="M127.193 72.317l-14.058-14.111-16.069 2.039 14.058 14.111 16.069-2.039z" data-color="1"></path>
        <path fill="#709DD1" d="M102.195 75.489L88.137 61.377l-16.069 2.039 14.058 14.112 16.069-2.039z" data-color="1"></path>
        <path fill="#709DD1" d="M77.197 78.661L63.139 64.549 47.07 66.588l14.058 14.111 16.069-2.038z" data-color="1"></path>
        <path d="M154.125 83.381H66.664l87.114-11.053a3.372 3.372 0 0 0 2.242-1.275 3.345 3.345 0 0 0 .679-2.48l-2.005-15.641a3.357 3.357 0 0 0-1.283-2.231 3.38 3.38 0 0 0-2.492-.674L45.448 63.41a3.36 3.36 0 0 0-2.921 3.755l2.004 15.641c.082.636.349 1.227.754 1.713a3.324 3.324 0 0 0-.861 2.22v59.904A3.366 3.366 0 0 0 47.799 150h106.325a3.366 3.366 0 0 0 3.375-3.357V86.739a3.365 3.365 0 0 0-3.374-3.358zm-5.7-26.269l1.151 8.98L50.8 78.626l-1.151-8.98 98.776-12.534zm2.326 86.173H51.175V90.096h99.575v53.189z" fill="#709DD1" data-color="2"></path>
    </g>
</svg>