<svg xmlns:xlink="http://www.w3.org/1999/xlink" preserveAspectRatio="xMidYMid meet" data-bbox="10.411 30.955 178.189 136.945" viewBox="10.411 30.955 178.189 136.945" height="200" width="200" xmlns="http://www.w3.org/2000/svg" data-type="color" role="presentation" aria-hidden="true"><defs><style>#comp-l9qc3t4f svg [data-color="1"] {fill: #709DD1;}</style></defs>
    <g>
        <path d="M188.3 68.4c0-5.9-1.5-10.2-4.4-12.6-2.6-2.2-5.5-2.2-6.6-2.1H169v-19c0-1.8-1.4-3.3-3.2-3.5C164 31 122.5 27.7 99 53 75.5 27.8 34 31.1 32.2 31.3c-1.8.2-3.2 1.7-3.2 3.5v17.4l-7-.3c-.8 0-4.1 0-7 2.8-3 2.9-4.4 7.5-4.3 13.8-.4 3.4-.3 12.2-.2 37.9.1 18.2.2 36.6.2 37.5 0 .9.1 6.5 4.4 10.9 3 3.1 7.3 4.7 12.6 4.7h43.1c.1 0 10.2.1 12.1 6 .5 1.5 1.8 2.4 3.3 2.4h12.6c.2 0 .4 0 .6-.1.2 0 .4.1.6.1h12.6c1.5 0 2.9-1 3.3-2.4 1.9-5.9 12-6 12.1-6h43.1c5.9 0 10.4-1.7 13.4-5 3.8-4.2 3.7-9.4 3.6-10.6 0-1.9.1-19.7.2-37.4.4-26 .4-34.7 0-38.1zM162 38.1v91c-23.5-3.8-48.6 9.5-59.5 16.3V59.7c17.4-20.8 49.3-21.8 59.5-21.6zm-126 0c10.2-.2 42.1.8 59.5 21.5v85.8c-4-2.5-9.9-5.8-16.9-8.9-12.3-5.4-23.7-8.1-34-8.1-3 0-5.8.2-8.6.7v-91zM14.9 71.9c-.2 0-.4.1-.7.1.2-.1.4-.1.7-.1zm.1-.1c.2 0 .3-.1.5-.2-.2.1-.3.2-.5.2zm.7-.2c.1-.1.3-.1.4-.2-.2.1-.3.1-.4.2zm.5-.3c.2-.1.3-.2.4-.4-.1.1-.2.3-.4.4zm.5-.4c.2-.2.3-.4.5-.6-.2.2-.3.4-.5.6zm.8-1.4c-.1.2-.2.5-.3.7.1-.2.2-.4.3-.7zm163.9 74.8s.3 3.3-1.8 5.5c-1.6 1.8-4.4 2.7-8.2 2.7h-43.1c-.5 0-13.1 0-17.8 8.5h-10.4c-.2 0-.4 0-.6.1-.2 0-.4-.1-.6-.1H88.5c-4.7-8.5-17.2-8.5-17.7-8.5H27.7c-3.4 0-5.9-.8-7.6-2.5-2.4-2.4-2.4-6-2.4-6v-.1c-.2-28-.4-70.4-.1-74.7.1-.3.1-.6.1-.9-.1-4 .6-7 2-8.4.8-.8 1.7-1 2-1l7.3.3v74.2c0 1.1.5 2.1 1.4 2.8.9.7 2 .9 3 .6 14.7-3.8 31.1 1.2 42.3 6.1 12.4 5.4 21.2 11.9 21.3 11.9.1.1.3.2.4.2.2.1.4.2.7.2h.2c.2 0 .5.1.7.1s.5 0 .7-.1h.2c.2-.1.5-.1.7-.3h.1c.1-.1.3-.2.4-.2.1-.1 9-6.5 21.3-11.9 11.2-4.9 27.5-9.9 42.3-6.1 1 .3 2.2 0 3-.6.9-.7 1.4-1.7 1.4-2.8V60.7h9.2c.2 0 .8 0 1.4.5.6.5 1.9 2.2 1.9 7.2 0 .3 0 .5.1.8.3 4.3.1 46.8-.1 74.7-.3.2-.2.3-.2.4zm.1-74.7c.1.3.3.7.5.9-.2-.3-.4-.6-.5-.9zm.6 1l.3.3-.3-.3zm1.6 1.1c-.1 0-.2-.1-.3-.1.1.1.2.1.3.1zm-.5-.2c-.1-.1-.2-.1-.3-.2.1.1.2.2.3.2zm-.4-.3c-.1-.1-.2-.1-.3-.2.1.1.2.2.3.2zm1.2.6c.1 0 .2 0 .3.1-.1 0-.2-.1-.3-.1z" fill="#709DD1" data-color="1"></path>
        <path d="M50.2 69.6c.2 0 15.7.8 28.3 9 .6.4 1.3.6 1.9.6 1.1 0 2.3-.6 2.9-1.6 1.1-1.6.6-3.8-1-4.8C68 63.5 51.2 62.7 50.5 62.7c-1.9-.1-3.6 1.4-3.6 3.3-.1 1.9 1.4 3.5 3.3 3.6z" fill="#709DD1" data-color="1"></path>
        <path d="M50.2 87.3c.2 0 15.7.8 28.3 9 .6.4 1.3.6 1.9.6 1.1 0 2.3-.6 2.9-1.6 1.1-1.6.6-3.8-1-4.8C68 81.2 51.2 80.4 50.5 80.4c-1.9-.1-3.6 1.4-3.6 3.3-.1 1.9 1.4 3.5 3.3 3.6z" fill="#709DD1" data-color="1"></path>
        <path d="M82.3 108c-4.9-3.1-14-6.3-16.7-7.3-1.8-.6-3.8.3-4.4 2.2-.6 1.8.3 3.8 2.2 4.4 5.2 1.8 11.9 4.4 15.2 6.5.6.4 1.2.5 1.9.5 1.2 0 2.3-.6 3-1.6.9-1.5.4-3.7-1.2-4.7z" fill="#709DD1" data-color="1"></path>
        <path d="M56 98.5c-3.3-.5-5.3-.6-5.4-.6-1.9-.1-3.6 1.4-3.7 3.3-.1 1.9 1.4 3.6 3.3 3.7 0 0 1.8.1 4.7.5h.5c1.7 0 3.2-1.2 3.5-3 .3-1.8-1-3.6-2.9-3.9z" fill="#709DD1" data-color="1"></path>
        <path d="M116.3 79.1c.6 0 1.3-.2 1.9-.5 3.8-2.4 8-4.4 12.2-5.7 1.8-.6 2.9-2.6 2.3-4.4-.6-1.8-2.6-2.9-4.4-2.3-4.7 1.5-9.5 3.8-13.8 6.5-1.6 1-2.1 3.2-1.1 4.8.6 1 1.7 1.6 2.9 1.6z" fill="#709DD1" data-color="1"></path>
        <path d="M138 70.7c.2 0 .5 0 .7-.1 4.5-.9 7.7-1 7.8-1 1.9-.1 3.5-1.7 3.4-3.6-.1-1.9-1.6-3.4-3.5-3.4h-.1c-.2 0-3.8.1-8.9 1.1-1.9.4-3.1 2.2-2.8 4.1.3 1.7 1.7 2.9 3.4 2.9z" fill="#709DD1" data-color="1"></path>
        <path d="M116.3 96.8c.7 0 1.3-.2 1.9-.6 12.6-8.2 28.1-9 28.3-9 1.9-.1 3.4-1.7 3.3-3.6-.1-1.9-1.7-3.4-3.6-3.4-.7 0-17.6.8-31.8 10.1-1.6 1.1-2.1 3.2-1 4.8.6 1.2 1.8 1.7 2.9 1.7z" fill="#709DD1" data-color="1"></path>
        <path d="M116.3 114.4c.7 0 1.3-.2 1.9-.6 12.6-8.2 28.1-9 28.3-9 1.9-.1 3.4-1.7 3.3-3.6-.1-1.9-1.7-3.4-3.6-3.4-.7 0-17.6.8-31.8 10.1-1.6 1.1-2.1 3.2-1 4.8.6 1.2 1.8 1.7 2.9 1.7z" fill="#709DD1" data-color="1"></path>
    </g>
</svg>