<svg xmlns:xlink="http://www.w3.org/1999/xlink" preserveAspectRatio="xMidYMid meet" data-bbox="50.325 18.585 98.675 162.715" viewBox="50.325 18.585 98.675 162.715" height="200" width="200" xmlns="http://www.w3.org/2000/svg" data-type="color" role="presentation" aria-hidden="true"><defs><style>#comp-l9nj27t5 svg [data-color="1"] {fill: #093F7C;}</style></defs>
    <g>
        <path d="M102.8 97c3.9 0 6.9-2.8 8.6-4.7-2.6-.1-4.3-2-6.4-2.8-.8-.3-2.2.6-2.2.6s-1.4-.9-2.2-.6c-2.1.9-3.8 2.8-6.4 2.8 1.7 1.9 4.7 4.7 8.6 4.7z" fill="#093F7C" data-color="1"></path>
        <path d="M147.8 110.1c-4.4-.5-7.3-2.1-9-5-2.8-4.8-1.9-13.2 2.8-26.4 2.6-7.3 2.1-14.7-1.4-21.3-.7-1.3-1.7-2.3-2.4-3.6-.6-1.2-.9-2.6-1-4-.7-6.4-3.3-12.6-7-17.6-1.9-2.6-4.1-4.8-6.7-6.5-4-2.6-8.7-3.7-13.4-3.7h-.1c-.7 0-2-1-2.7-1.3-1.3-.5-2.6-.9-3.9-1.2-2.5-.6-5.1-1-7.6-.9-5.3.3-10.4 2.3-14.7 5.5-6.8 5.2-10.8 13.5-12.4 22.2-1.7 9.8-.8 20.1-4.5 29.4-3.1 7.8-7.9 14.1-8.8 22.7 0 .3-.1.6-.1.9-.1 2.1 0 4 .2 5.7 0 .4.1.7.1 1.1v.2c0 .2.1.4.1.6-1.4 2.8-2.1 5.9-2.2 9.3 0 1.6.1 3 .4 4.1-1.7 1.5-2.8 3.2-3.1 5.1-.6 4.2 2.6 7.5 2.7 7.7l.9.9c.1.5.3.9.4 1.4.3.7.6 1.4.9 2-.1.2-.2.3-.3.5-2.6 4.6-2.8 9.2-.5 13.7 2 3.8 5.3 6.8 7.9 9.2l.3.3c1.1 1 2.2 2.4 2.4 4 .2 1.6-.3 3.6-1.5 4.5-.4.3-1 .5-1.5.7-.1 0-.8.1-.8.2.6.2 1.3.3 1.9.4 1 .2 2 0 3-.4.4-.2 2.1-.9 1.9-1.6.8 3.1 2 5.5 4.6 8.2 2.6 2.7 5.7 4.2 9 4.2 2.7 0 5.4-1 7.5-2.8.6-.5 1.2-1.2 1.6-1.9.5-.8.8-1.6 1.1-2.4l-1.2.4s-1.2.4-2.9.4c-1.6 0-3.8-.5-5.5-2.4 0 0 1.6.8 2.1-.2 0 0-1 .3-1.7-.8-.1-.1-2.5-3.7 4.5-9.7 7.8-6.7 9.2-15 4-23.8 2.4-3.6 3.4-8.8 3.6-13.1.3-.9.6-1.8.7-2.7.7-5-1.2-10.8-5.1-15-3.1-3.4-4.1-7.8-4.4-10.8 0-.4-.1-.7-.1-1.1-.1-1.4 0-2.4 0-2.5l.1-.6c7.1-7.9 4.1-18.1 1.6-26.5-.4-1.2-.7-2.4-1-3.6-.1-.3-.2-.7-.3-1-.5-2-.8-3.8-.8-5.3.2-10.4 7.1-14.5 12.9-14.8.7 0 1.4-.1 2-.1 6.4-.4 10.2-.6 11.9-2.8.2-.3.4-.6.5-.9-.3.6 1.2 3.7 1.5 4.4.6 1.5 1.3 2.9 2.2 4.1 1.6 2.3 3.7 4.2 6 5.7.4.3.8.5 1.2.8 1.3 1.2 2.4 3.2 3.2 4.8.1.1.1.2.2.3.2.7.3 1.5.4 2.2.1 1.1-.1 2.2-.7 3.1-.6.9-1.7 1.4-2.6.9.8 1.3 2.1 2.3 3.5 2.2.7 0 1.3-.4 1.9-.9 1.2 9.8-5.5 18.7-6.2 28.4-.6 8.9 2.7 20.1 12.6 20.8h.9c5.6 0 10.5-3.1 10.7-3.3l1.4-.9-1.2.2z" fill="#093F7C" data-color="1"></path>
        <path d="M111 87c-.8 0-.8 1.3 0 1.3.7 0 .7-1.3 0-1.3z" fill="#093F7C" data-color="1"></path>
    </g>
</svg>