<svg xmlns:xlink="http://www.w3.org/1999/xlink" preserveAspectRatio="xMidYMid meet" data-bbox="20.002 39.5 159.997 121" viewBox="20.002 39.5 159.997 121" height="200" width="200" xmlns="http://www.w3.org/2000/svg" data-type="color" role="presentation" aria-hidden="true"><defs><style>#comp-l9p656gj svg [data-color="1"] {fill: #709DD1;}</style></defs>
    <g>
        <path d="M61.692 120.79a1.967 1.967 0 0 1-1.973-1.961V74.706c0-1.083.883-1.961 1.973-1.961h16.767c1.089 0 1.973.878 1.973 1.961v43.632a1.967 1.967 0 0 1-1.973 1.961 1.967 1.967 0 0 1-1.973-1.961V76.667H63.665v42.162a1.967 1.967 0 0 1-1.973 1.961z" fill="#709DD1" data-color="1"></path>
        <path d="M140.104 119.809a1.967 1.967 0 0 1-1.973-1.961V76.667h-12.822v40.691a1.967 1.967 0 0 1-1.973 1.961 1.967 1.967 0 0 1-1.973-1.961V74.706c0-1.083.883-1.961 1.973-1.961h16.767c1.089 0 1.973.878 1.973 1.961v43.142a1.967 1.967 0 0 1-1.972 1.961z" fill="#709DD1" data-color="1"></path>
        <path d="M176.104 126.182H26.185a1.967 1.967 0 0 1-1.973-1.961v-5.393c0-1.083.883-1.961 1.973-1.961h149.918c1.089 0 1.973.878 1.973 1.961v5.393a1.967 1.967 0 0 1-1.972 1.961zM28.158 122.26h145.973v-1.471H28.158v1.471z" fill="#709DD1" data-color="1"></path>
        <path d="M81.912 141.87a1.967 1.967 0 0 1-1.973-1.961v-13.727H60.706v13.727c0 1.083-.883 1.961-1.973 1.961s-1.973-.878-1.973-1.961v-15.688c0-1.083.883-1.961 1.973-1.961h23.178c1.089 0 1.973.878 1.973 1.961v15.688a1.967 1.967 0 0 1-1.972 1.961z" fill="#709DD1" data-color="1"></path>
        <path d="M144.049 141.87a1.967 1.967 0 0 1-1.973-1.961v-13.727h-18.74v13.727a1.967 1.967 0 0 1-1.973 1.961 1.967 1.967 0 0 1-1.973-1.961v-15.688c0-1.083.883-1.961 1.973-1.961h22.685c1.089 0 1.973.878 1.973 1.961v15.688a1.967 1.967 0 0 1-1.972 1.961z" fill="#709DD1" data-color="1"></path>
        <path d="M120.52 134.146c-.235 0-.474-.042-.707-.131l-18.682-7.134-18.006 7.016a1.978 1.978 0 0 1-2.557-1.11 1.959 1.959 0 0 1 1.117-2.542l18.719-7.293a1.99 1.99 0 0 1 1.427-.005l19.397 7.407a1.958 1.958 0 0 1 1.134 2.534 1.974 1.974 0 0 1-1.842 1.258z" fill="#709DD1" data-color="1"></path>
        <path d="M123.336 73.726H78.953c-1.089 0-1.973-.878-1.973-1.961s.883-1.961 1.973-1.961h44.384c1.089 0 1.973.878 1.973 1.961s-.884 1.961-1.974 1.961z" fill="#709DD1" data-color="1"></path>
        <path d="M26.463 101.324a1.968 1.968 0 0 1-1.969-1.864 1.965 1.965 0 0 1 1.872-2.056c29.434-1.456 33.941-22.517 33.983-22.73a1.97 1.97 0 0 1 2.316-1.545 1.962 1.962 0 0 1 1.555 2.303c-.05.253-1.287 6.264-6.601 12.467-4.851 5.662-14.177 12.588-31.056 13.423l-.1.002z" fill="#709DD1" data-color="1"></path>
        <path d="M50.35 119.319a1.967 1.967 0 0 1-1.973-1.961V91.865c0-1.083.883-1.961 1.973-1.961s1.973.878 1.973 1.961v25.493a1.968 1.968 0 0 1-1.973 1.961z" fill="#709DD1" data-color="1"></path>
        <path d="M37.528 119.319a1.967 1.967 0 0 1-1.973-1.961v-19.12c0-1.083.883-1.961 1.973-1.961s1.973.878 1.973 1.961v19.12a1.968 1.968 0 0 1-1.973 1.961z" fill="#709DD1" data-color="1"></path>
        <path d="M176.978 102.009l-.1-.002c-16.879-.835-26.205-7.76-31.056-13.423-5.314-6.203-6.551-12.214-6.601-12.467a1.961 1.961 0 0 1 1.555-2.303 1.971 1.971 0 0 1 2.315 1.539c.011.054 1.148 5.408 5.869 10.843 6.327 7.281 15.786 11.283 28.115 11.893a1.965 1.965 0 0 1 1.872 2.056 1.967 1.967 0 0 1-1.969 1.864z" fill="#709DD1" data-color="1"></path>
        <path d="M152.926 120.299a1.967 1.967 0 0 1-1.973-1.961V92.355c0-1.083.883-1.961 1.973-1.961s1.973.878 1.973 1.961v25.983a1.968 1.968 0 0 1-1.973 1.961z" fill="#709DD1" data-color="1"></path>
        <path d="M165.254 120.299a1.967 1.967 0 0 1-1.973-1.961v-19.61c0-1.083.883-1.961 1.973-1.961s1.973.878 1.973 1.961v19.61a1.967 1.967 0 0 1-1.973 1.961z" fill="#709DD1" data-color="1"></path>
        <path d="M78.459 76.667H61.692a1.967 1.967 0 0 1-1.973-1.961V57.547c0-1.083.883-1.961 1.973-1.961h16.767c1.089 0 1.973.878 1.973 1.961v17.159a1.967 1.967 0 0 1-1.973 1.961zm-14.794-3.922h12.822V59.508H63.665v13.237z" fill="#709DD1" data-color="1"></path>
        <path d="M76.091 58.526c-.78 0-1.519-.463-1.829-1.227l-3.869-9.514-3.11 9.149a1.973 1.973 0 0 1-2.5 1.23 1.958 1.958 0 0 1-1.237-2.485l4.813-14.161a1.971 1.971 0 0 1 1.811-1.333 1.989 1.989 0 0 1 1.886 1.225l5.863 14.419a1.957 1.957 0 0 1-1.089 2.553 1.967 1.967 0 0 1-.739.144z" fill="#709DD1" data-color="1"></path>
        <path d="M61.692 59.508a1.967 1.967 0 0 1-1.973-1.961v-8.336c0-.888.601-1.666 1.464-1.895a1.978 1.978 0 0 1 2.219.918l4.334 7.502a1.954 1.954 0 0 1-.728 2.677 1.98 1.98 0 0 1-2.693-.724l-.651-1.126v.984a1.965 1.965 0 0 1-1.972 1.961z" fill="#709DD1" data-color="1"></path>
        <path d="M78.459 59.018a1.967 1.967 0 0 1-1.973-1.961v-.899l-.655 1.123a1.978 1.978 0 0 1-2.696.712 1.954 1.954 0 0 1-.717-2.68l4.334-7.428a1.977 1.977 0 0 1 2.219-.91 1.963 1.963 0 0 1 1.46 1.894v8.188a1.965 1.965 0 0 1-1.972 1.961z" fill="#709DD1" data-color="1"></path>
        <path d="M73.035 76.177a1.967 1.967 0 0 1-1.973-1.961v-7.874c0-.4-.209-.603-.622-.603-.548 0-.642.764-.642.772-.003.748.041 7.614.041 7.683a1.967 1.967 0 0 1-1.96 1.974h-.013a1.966 1.966 0 0 1-1.972-1.948c-.002-.284-.045-6.957-.041-7.726.011-2.249 1.768-4.676 4.588-4.676 2.967 0 4.567 2.331 4.567 4.525v7.874a1.968 1.968 0 0 1-1.973 1.96z" fill="#709DD1" data-color="1"></path>
        <path d="M140.104 76.177h-16.767a1.967 1.967 0 0 1-1.973-1.961V57.057c0-1.083.883-1.961 1.973-1.961h16.767c1.089 0 1.973.878 1.973 1.961v17.159a1.968 1.968 0 0 1-1.973 1.961zm-14.795-3.922h12.822V59.018h-12.822v13.237z" fill="#709DD1" data-color="1"></path>
        <path d="M137.742 57.841c-.78 0-1.519-.463-1.829-1.227l-3.869-9.515-3.111 9.15a1.976 1.976 0 0 1-2.5 1.23 1.959 1.959 0 0 1-1.237-2.486l4.814-14.16a1.971 1.971 0 0 1 1.811-1.332 1.979 1.979 0 0 1 1.886 1.225l5.863 14.419a1.957 1.957 0 0 1-1.089 2.553 1.985 1.985 0 0 1-.739.143z" fill="#709DD1" data-color="1"></path>
        <path d="M123.336 59.018a1.967 1.967 0 0 1-1.973-1.961v-8.53c0-.89.603-1.669 1.469-1.896a1.976 1.976 0 0 1 2.219.929l4.333 7.599a1.955 1.955 0 0 1-.743 2.673 1.98 1.98 0 0 1-2.689-.739l-.645-1.131v1.095a1.964 1.964 0 0 1-1.971 1.961z" fill="#709DD1" data-color="1"></path>
        <path d="M140.104 58.038a1.967 1.967 0 0 1-1.973-1.961v-.73l-.665 1.117a1.977 1.977 0 0 1-2.703.688 1.956 1.956 0 0 1-.693-2.686l4.335-7.28a1.975 1.975 0 0 1 2.219-.892 1.963 1.963 0 0 1 1.452 1.891v7.892a1.967 1.967 0 0 1-1.972 1.961z" fill="#709DD1" data-color="1"></path>
        <path d="M134.186 75.687a1.967 1.967 0 0 1-1.973-1.961v-8.068c0-.579-.183-.579-.435-.579-.417 0-.455.789-.455.796-.003.769-.083 7.767-.083 7.767l-3.945-.045s.079-6.973.083-7.74c.011-2.279 1.557-4.7 4.4-4.7 2.579 0 4.381 1.851 4.381 4.501v8.068a1.968 1.968 0 0 1-1.973 1.961z" fill="#709DD1" data-color="1"></path>
        <path d="M34.51 143.763c-.974 0-1.957-.262-2.885-.788-.91-.516-1.733-1.265-2.405-2.141a8.127 8.127 0 0 1-2.107 1.85c-1.738 1.042-3.721 1.258-5.736.623a1.96 1.96 0 0 1-1.284-2.462 1.977 1.977 0 0 1 2.477-1.277c.927.293 1.746.213 2.505-.242 1.135-.681 2.062-2.188 2.36-3.84a1.972 1.972 0 0 1 2.133-1.605c1.023.1 1.798.964 1.78 1.986-.02 1.14.929 2.965 2.229 3.701.835.474 1.395.255 1.789.012a1.98 1.98 0 0 1 2.715.64c.572.922.283 2.13-.644 2.699a5.577 5.577 0 0 1-2.927.844z" fill="#709DD1" data-color="1"></path>
        <path d="M45.521 143.763c-.974 0-1.957-.262-2.885-.788-.911-.515-1.733-1.265-2.405-2.141a8.127 8.127 0 0 1-2.107 1.85c-1.738 1.042-3.721 1.258-5.736.623a1.96 1.96 0 0 1-1.284-2.462 1.978 1.978 0 0 1 2.477-1.277c.927.293 1.746.213 2.505-.242 1.135-.681 2.062-2.188 2.36-3.84a1.973 1.973 0 0 1 2.133-1.605c1.023.1 1.798.964 1.78 1.986-.02 1.14.929 2.965 2.229 3.701.833.472 1.393.254 1.789.013a1.977 1.977 0 0 1 2.714.64c.572.922.284 2.13-.643 2.698a5.577 5.577 0 0 1-2.927.844z" fill="#709DD1" data-color="1"></path>
        <path d="M56.152 143.763c-.975 0-1.958-.263-2.886-.789-.91-.516-1.732-1.264-2.404-2.141a8.127 8.127 0 0 1-2.107 1.85c-1.738 1.042-3.722 1.257-5.736.623a1.96 1.96 0 0 1-1.285-2.462 1.976 1.976 0 0 1 2.476-1.277c.929.293 1.747.213 2.506-.242 1.135-.681 2.062-2.188 2.361-3.841a1.97 1.97 0 0 1 2.134-1.604c1.023.1 1.798.964 1.779 1.985-.02 1.14.929 2.965 2.228 3.701.834.472 1.395.254 1.79.012a1.98 1.98 0 0 1 2.715.64c.572.922.283 2.13-.644 2.699a5.556 5.556 0 0 1-2.927.846z" fill="#709DD1" data-color="1"></path>
        <path d="M67.163 143.763c-.974 0-1.957-.262-2.885-.788-.911-.516-1.733-1.265-2.405-2.141a8.147 8.147 0 0 1-2.107 1.851c-1.737 1.042-3.72 1.257-5.735.623a1.96 1.96 0 0 1-1.284-2.462 1.977 1.977 0 0 1 2.477-1.277c.927.293 1.746.213 2.505-.242 1.135-.681 2.062-2.188 2.361-3.841a1.974 1.974 0 0 1 3.913.381c-.02 1.14.929 2.965 2.229 3.701.832.472 1.394.255 1.789.012a1.98 1.98 0 0 1 2.715.64c.572.922.283 2.13-.644 2.699a5.587 5.587 0 0 1-2.929.844z" fill="#709DD1" data-color="1"></path>
        <path d="M77.795 143.763c-.974 0-1.958-.262-2.886-.788-.91-.516-1.733-1.265-2.405-2.141a8.131 8.131 0 0 1-2.107 1.851c-1.738 1.042-3.721 1.257-5.736.623a1.96 1.96 0 0 1-1.284-2.462 1.977 1.977 0 0 1 2.477-1.277c.927.293 1.746.213 2.505-.242 1.135-.681 2.062-2.188 2.361-3.841a1.97 1.97 0 0 1 2.134-1.604c1.023.1 1.798.964 1.779 1.985-.02 1.14.929 2.965 2.228 3.701.833.472 1.394.255 1.789.013a1.977 1.977 0 0 1 2.714.64c.572.922.284 2.13-.643 2.698a5.571 5.571 0 0 1-2.926.844z" fill="#709DD1" data-color="1"></path>
        <path d="M88.806 143.763c-.974 0-1.958-.262-2.886-.788-.91-.516-1.733-1.265-2.405-2.141a8.147 8.147 0 0 1-2.107 1.851c-1.738 1.043-3.72 1.258-5.735.622a1.959 1.959 0 0 1-1.284-2.462 1.973 1.973 0 0 1 2.476-1.276c.927.292 1.746.213 2.504-.242 1.135-.681 2.062-2.189 2.361-3.842a1.97 1.97 0 0 1 2.134-1.604c1.023.1 1.798.964 1.779 1.985-.02 1.14.929 2.965 2.228 3.701.833.472 1.394.255 1.789.013a1.977 1.977 0 0 1 2.714.64c.572.922.284 2.13-.643 2.698a5.557 5.557 0 0 1-2.925.845z" fill="#709DD1" data-color="1"></path>
        <path d="M99.817 143.763c-.974 0-1.957-.262-2.886-.788-.91-.516-1.732-1.265-2.404-2.141a8.147 8.147 0 0 1-2.107 1.851c-1.738 1.042-3.72 1.257-5.735.623a1.96 1.96 0 0 1-1.284-2.462 1.978 1.978 0 0 1 2.477-1.277c.927.293 1.746.213 2.505-.242 1.135-.681 2.062-2.188 2.361-3.841a1.97 1.97 0 0 1 2.134-1.604c1.023.1 1.798.964 1.779 1.985-.02 1.14.929 2.965 2.228 3.701.835.474 1.395.255 1.789.012a1.98 1.98 0 0 1 2.715.64c.572.922.283 2.13-.644 2.699a5.583 5.583 0 0 1-2.928.844z" fill="#709DD1" data-color="1"></path>
        <path d="M110.828 143.763c-.974 0-1.957-.262-2.885-.788-.91-.516-1.733-1.265-2.405-2.141a8.14 8.14 0 0 1-2.106 1.85c-1.738 1.042-3.721 1.258-5.736.623a1.96 1.96 0 0 1-1.284-2.462 1.977 1.977 0 0 1 2.477-1.277c.927.293 1.746.213 2.505-.242 1.135-.681 2.062-2.188 2.36-3.84a1.973 1.973 0 0 1 2.133-1.605c1.023.1 1.798.964 1.78 1.986-.02 1.14.929 2.965 2.229 3.701.835.474 1.395.255 1.789.012a1.98 1.98 0 0 1 2.715.64c.572.922.283 2.13-.644 2.699a5.583 5.583 0 0 1-2.928.844z" fill="#709DD1" data-color="1"></path>
        <path d="M121.839 143.763c-.974 0-1.957-.262-2.885-.788-.91-.516-1.733-1.265-2.405-2.141a8.127 8.127 0 0 1-2.107 1.85c-1.738 1.042-3.721 1.257-5.736.623a1.96 1.96 0 0 1-1.284-2.462 1.978 1.978 0 0 1 2.477-1.277c.927.293 1.747.213 2.505-.242 1.135-.681 2.062-2.188 2.361-3.841a1.973 1.973 0 0 1 2.133-1.605c1.023.1 1.798.964 1.78 1.986-.02 1.14.929 2.965 2.229 3.701.835.474 1.395.255 1.789.012a1.98 1.98 0 0 1 2.715.64c.572.922.283 2.13-.644 2.699a5.575 5.575 0 0 1-2.928.845z" fill="#709DD1" data-color="1"></path>
        <path d="M132.85 143.763c-.974 0-1.957-.262-2.885-.788-.911-.515-1.733-1.265-2.406-2.141a8.14 8.14 0 0 1-2.106 1.85c-1.737 1.042-3.721 1.257-5.736.623a1.96 1.96 0 0 1-1.284-2.462 1.977 1.977 0 0 1 2.477-1.277c.927.293 1.746.213 2.505-.242 1.135-.681 2.062-2.188 2.361-3.841a1.974 1.974 0 0 1 3.913.381c-.02 1.14.929 2.965 2.229 3.701.833.472 1.394.254 1.789.013a1.977 1.977 0 0 1 2.714.64c.572.922.284 2.13-.643 2.698a5.573 5.573 0 0 1-2.928.845z" fill="#709DD1" data-color="1"></path>
        <path d="M143.481 143.763c-.974 0-1.957-.262-2.885-.788-.91-.516-1.733-1.265-2.405-2.141a8.127 8.127 0 0 1-2.107 1.85c-1.738 1.042-3.72 1.258-5.735.623a1.959 1.959 0 0 1-1.284-2.462 1.972 1.972 0 0 1 2.476-1.276c.927.292 1.745.212 2.505-.243 1.135-.681 2.062-2.188 2.361-3.841a1.968 1.968 0 0 1 2.133-1.604c1.023.1 1.798.964 1.78 1.985-.02 1.14.929 2.965 2.228 3.701.833.472 1.394.254 1.789.013a1.977 1.977 0 0 1 2.714.64c.572.922.284 2.13-.643 2.698a5.57 5.57 0 0 1-2.927.845z" fill="#709DD1" data-color="1"></path>
        <path d="M154.493 143.763c-.974 0-1.957-.262-2.885-.788-.911-.516-1.733-1.265-2.405-2.141a8.147 8.147 0 0 1-2.107 1.851c-1.738 1.043-3.72 1.258-5.735.622a1.959 1.959 0 0 1-1.284-2.462 1.973 1.973 0 0 1 2.476-1.276c.927.292 1.746.213 2.504-.242 1.135-.681 2.062-2.189 2.361-3.842a1.974 1.974 0 0 1 3.913.381c-.02 1.14.929 2.965 2.229 3.701.832.472 1.393.255 1.789.012a1.98 1.98 0 0 1 2.715.64c.572.922.283 2.13-.644 2.699a5.57 5.57 0 0 1-2.927.845z" fill="#709DD1" data-color="1"></path>
        <path d="M165.124 143.763c-.974 0-1.958-.262-2.886-.788-.91-.516-1.733-1.265-2.405-2.141a8.127 8.127 0 0 1-2.107 1.85c-1.738 1.042-3.721 1.257-5.736.623a1.96 1.96 0 0 1-1.284-2.462 1.977 1.977 0 0 1 2.477-1.277c.927.293 1.747.213 2.505-.242 1.135-.681 2.062-2.188 2.361-3.841a1.967 1.967 0 0 1 2.133-1.604c1.023.1 1.798.964 1.78 1.985-.02 1.14.929 2.965 2.228 3.701.833.472 1.394.255 1.789.013a1.977 1.977 0 0 1 2.714.64c.572.922.284 2.13-.643 2.698a5.563 5.563 0 0 1-2.926.845z" fill="#709DD1" data-color="1"></path>
        <path d="M176.135 143.763c-.974 0-1.957-.262-2.885-.788-.911-.516-1.733-1.265-2.405-2.141a8.127 8.127 0 0 1-2.107 1.85c-1.738 1.042-3.721 1.257-5.736.623a1.96 1.96 0 0 1-1.284-2.462 1.977 1.977 0 0 1 2.477-1.277c.927.293 1.746.213 2.505-.242 1.135-.681 2.061-2.188 2.36-3.841a1.971 1.971 0 0 1 2.133-1.605c1.023.1 1.798.964 1.78 1.986-.02 1.14.93 2.965 2.229 3.701.834.472 1.394.254 1.789.013a1.977 1.977 0 0 1 2.714.64c.572.922.284 2.13-.643 2.698a5.567 5.567 0 0 1-2.927.845z" fill="#709DD1" data-color="1"></path>
        <path d="M167.232 152.656c-1.089 0-1.975-.878-1.975-1.961s.881-1.961 1.97-1.961h.005c1.089 0 1.973.878 1.973 1.961s-.884 1.961-1.973 1.961zm-11.841 0h-21.699c-1.089 0-1.973-.878-1.973-1.961s.883-1.961 1.973-1.961h21.699c1.089 0 1.973.878 1.973 1.961s-.883 1.961-1.973 1.961zm-33.534 0h-21.699c-1.089 0-1.973-.878-1.973-1.961s.883-1.961 1.973-1.961h21.699c1.089 0 1.973.878 1.973 1.961s-.884 1.961-1.973 1.961zm-33.534 0H66.624c-1.089 0-1.973-.878-1.973-1.961s.883-1.961 1.973-1.961h21.699c1.089 0 1.973.878 1.973 1.961s-.884 1.961-1.973 1.961zm-33.535 0H33.089c-1.089 0-1.973-.878-1.973-1.961s.883-1.961 1.973-1.961h21.699c1.089 0 1.973.878 1.973 1.961s-.883 1.961-1.973 1.961z" fill="#709DD1" data-color="1"></path>
        <path d="M153.419 160.5h-8.384c-1.089 0-1.973-.878-1.973-1.961s.883-1.961 1.973-1.961h8.384c1.089 0 1.973.878 1.973 1.961s-.884 1.961-1.973 1.961zm-20.22 0H111.5c-1.089 0-1.973-.878-1.973-1.961s.883-1.961 1.973-1.961h21.699c1.089 0 1.973.878 1.973 1.961s-.883 1.961-1.973 1.961zm-33.534 0H77.966c-1.089 0-1.973-.878-1.973-1.961s.883-1.961 1.973-1.961h21.699c1.089 0 1.973.878 1.973 1.961s-.884 1.961-1.973 1.961zm-33.534 0H44.432c-1.089 0-1.973-.878-1.973-1.961s.883-1.961 1.973-1.961h21.699c1.089 0 1.973.878 1.973 1.961s-.884 1.961-1.973 1.961z" fill="#709DD1" data-color="1"></path>
    </g>
</svg>