<svg xmlns:xlink="http://www.w3.org/1999/xlink" preserveAspectRatio="xMidYMid meet" data-bbox="20 20 160.001 160" viewBox="20 20 160.001 160" height="200" width="200" xmlns="http://www.w3.org/2000/svg" data-type="color" role="presentation" aria-hidden="true"><defs><style>#comp-l9p66p07 svg [data-color="1"] {fill: #093F7C;}</style></defs>
    <g>
        <path fill="#093F7C" d="M180 100c0 44.183-35.817 80-80 80s-80-35.817-80-80 35.817-80 80-80 80 35.817 80 80z" data-color="1"></path>
        <path d="M81.14 172.473l-1.438-1.825a6.275 6.275 0 0 0-.575.3c-.305 1.043 1.091 2.101 2.013 1.525z" fill="#3F7652" data-color="2"></path>
        <path d="M106.726 115.359c-1-.856-2.275-1.301-3.456-1.883a15.61 15.61 0 0 1-7.052-7.073c-.655-1.339-1.143-2.811-2.187-3.876-1.894-1.931-4.956-1.934-7.45-2.981-2.876-1.208-5.147-3.886-8.242-4.278-2.226-.282-4.388.694-6.546 1.306s-4.762.765-6.364-.806c1.141-2.699-.929-6.214-3.843-6.524 1.391-1.491 1.415-4.057.051-5.573-1.365-1.516-3.919-1.762-5.547-.535-2.504-1.625-2.728-5.532-.961-7.937s4.929-3.439 7.913-3.435c.837.001 1.705.081 2.434.494.645.366 1.126.961 1.707 1.421 2.718 2.151 6.759.878 9.663-1.013s5.699-4.407 9.157-4.631c.853-.055 1.725.035 2.553-.179.888-.23 1.649-.79 2.385-1.338 1.859-1.385 3.853-2.975 4.307-5.249.111-.554.143-1.174.536-1.579.6-.62 1.618-.372 2.457-.173 3.42.812 7.198-.054 9.924-2.274.658-2.573.274-5.526-1.057-7.824-1.33-2.298-3.84-3.952-6.496-3.966-2.34-.013-4.502 1.167-6.53 2.336-2.027 1.169-4.149 2.394-6.487 2.488s-4.924-1.379-5.197-3.703c-.074-.625.052-1.32.521-1.739.606-.541 1.523-.442 2.325-.571 1.781-.286 3.094-1.756 4.634-2.694 4.847-2.952 11.074-.368 16.732-.798 1.11-.084 2.338-.369 2.942-1.304.455-.704.437-1.627.187-2.426-.59-1.886-2.328-3.235-4.198-3.874-1.87-.638-3.884-.676-5.86-.708l-9.657-.155a14.042 14.042 0 0 1 .621-4.967c-3.817-1.299-8.008-.232-12.023-.603a16.802 16.802 0 0 1-6.209-1.847c-17.253 6.339-31.725 18.455-41.06 34.017.99.4 2.113.509 2.976 1.136 1.532 1.115 1.61 3.33 1.541 5.224l-.319 8.689c-.058 1.592-.109 3.234.455 4.724.564 1.49 1.906 2.805 3.499 2.828 2.286.033 3.951-2.44 6.228-2.637l.514 6.449c.082 1.031.209 2.162.959 2.875.908.864 2.359.773 3.47 1.353 1.462.764 2.057 2.495 2.799 3.969 2.012 3.997 6.034 6.916 10.457 7.591.531.081 1.134.17 1.438.613.176.257.212.584.204.895-.081 3.536-4.622 5.621-4.977 9.14-.391 3.87 4.195 6.1 6.406 9.3 3.872 5.604-.049 13.339 1.249 20.026.672 3.461 2.772 6.748 2.277 10.239-.233 1.642-1.038 3.213-.92 4.866.125 1.753 1.259 3.249 2.347 4.63l7.746 9.832a6.609 6.609 0 0 1 2.719-.622l-.427-13.063c-.027-.835-.052-1.687.187-2.486.857-2.86 4.451-3.732 6.554-5.852 1.541-1.553 2.228-3.744 3.435-5.569.829-1.254 1.9-2.327 2.962-3.39l12.845-12.859c.571-.571 1.158-1.169 1.433-1.928.307-.847.183-1.782.056-2.675-.354-2.489-.829-5.208-2.74-6.844z" fill="#3F7652" data-color="2"></path>
        <path d="M158.22 80.456c.352-.316.448-.819.645-1.249.837-1.829 3.963-1.842 4.814-.02.23.493.308 1.055.596 1.516.543.872 1.659 1.155 2.664 1.364l8.059 1.678c.674.14 1.39.279 2.04.047.455-.162.822-.49 1.13-.869a79.754 79.754 0 0 0-17.338-34.882c-1.51.731-2.927 1.789-4.502 2.394-1.859.715-4.262.989-5.18 3.051-1.055 2.37 1.029 4.834 2.087 7.202.19.426.349.917.172 1.349-.224.548-.878.762-1.459.876-1.51.296-3.065.358-4.595.184l-1.163-8.795c-.1-.755-.264-1.613-.918-2.003-.981-.587-2.166.313-2.916 1.175-.85.977-1.675 2.04-1.977 3.3s.054 2.763 1.152 3.451c.912.572 2.124.484 3.035 1.058 1.458.92 1.464 3.167.528 4.616-.936 1.448-2.504 2.333-3.923 3.311a26.025 26.025 0 0 0-5.675 5.322c-1.325 1.683-2.261 4.51-.45 5.652 1.786 1.126 3.839-.799 5.594-1.974 3.349-2.242 7.747-1.804 11.743-1.28.626.082 1.278.174 1.801.528.782.528 1.097 1.506 1.641 2.277.545.77 1.692 1.349 2.395.721z" fill="#3F7652" data-color="2"></path>
        <path d="M174.55 92.31c-2.623-.987-5.43-1.368-8.138-2.087a33.472 33.472 0 0 1-11.136-5.318c-1.369-1.002-2.707-2.131-4.332-2.618-2.479-.744-5.124.136-7.711.184-2.199.041-4.376-.526-6.576-.494-2.812.042-5.101 1.837-7.582 2.892-2.351 1-5.785 2.355-4.844 5.716.213.761.706 1.522.477 2.279-.194.644-.842 1.021-1.288 1.525-1.117 1.264-.883 3.186-.582 4.846.662 3.648 1.355 7.382 3.23 10.58 1.876 3.198 5.207 5.805 8.914 5.759 2.023-.025 3.958-.819 5.969-1.041 2.011-.222 4.379.356 5.245 2.184.783 1.651.04 3.588.073 5.416.075 4.104 4.087 7.697 3.168 11.697-.386 1.68-1.623 3.123-1.739 4.843-.062.922.208 1.831.489 2.711a91.818 91.818 0 0 0 7.085 16.446c15.127-14.461 24.6-34.799 24.728-57.379a80.705 80.705 0 0 0-.096-4.383c-1.298-1.744-3.29-2.981-5.354-3.758z" fill="#3F7652" data-color="2"></path>
    </g>
</svg>