<svg xmlns:xlink="http://www.w3.org/1999/xlink" preserveAspectRatio="xMidYMid meet" data-bbox="43.5 62 113 76.001" viewBox="43.5 62 113 76.001" height="200" width="200" xmlns="http://www.w3.org/2000/svg" data-type="color" role="presentation" aria-hidden="true"><defs><style>#comp-l9nd5z0d svg [data-color="1"] {fill: #709DD1;}
#comp-l9nd5z0d svg [data-color="2"] {fill: #709DD1;}</style></defs>
    <g>
        <path d="M119.659 98.798l-32.41-20.173a1.43 1.43 0 0 0-1.446-.038c-.453.25-.735.725-.735 1.24v40.346a1.425 1.425 0 0 0 2.181 1.202l32.41-20.173a1.416 1.416 0 0 0 0-2.404z" fill="#709DD1" data-color="1"></path>
        <path d="M153.128 62H46.873a3.365 3.365 0 0 0-3.373 3.357v69.287a3.365 3.365 0 0 0 3.373 3.357h106.255a3.364 3.364 0 0 0 3.372-3.357V65.357A3.365 3.365 0 0 0 153.128 62zm-94.273 69.287h-8.61v-6.449h8.61v6.449zm0-13.162h-8.61v-7.609h8.61v7.609zm0-14.321h-8.61v-7.608h8.61v7.608zm0-14.321h-8.61v-7.608h8.61v7.608zm0-14.321h-8.61v-6.449h8.61v6.449zm75.545 56.125H65.6V68.713h68.8v62.574zm15.355 0h-8.61v-6.449h8.61v6.449zm0-13.162h-8.61v-7.609h8.61v7.609zm0-14.321h-8.61v-7.608h8.61v7.608zm0-14.321h-8.61v-7.608h8.61v7.608zm0-14.321h-8.61v-6.449h8.61v6.449z" fill="#709DD1" data-color="2"></path>
    </g>
</svg>