<svg xmlns:xlink="http://www.w3.org/1999/xlink" preserveAspectRatio="xMidYMid meet" data-bbox="20.5 20 159 160" viewBox="20.5 20 159 160" height="200" width="200" xmlns="http://www.w3.org/2000/svg" data-type="color" role="presentation" aria-hidden="true"><defs><style>#comp-l9p06d73 svg [data-color="1"] {fill: #093F7C;}</style></defs>
    <g>
        <path d="M131.2 96c16.6 0 30.1-13.6 30.1-30.2 0-16.7-13.6-30.2-30.1-30.2s-30.1 13.6-30.1 30.2C101 82.4 114.5 96 131.2 96zm0-54.8c13.5 0 24.5 11 24.5 24.5s-11 24.5-24.5 24.5-24.5-11-24.5-24.5 11-24.5 24.5-24.5z" fill="#093F7C" data-color="1"></path>
        <path d="M58.4 96c20.9 0 37.8-17 37.8-38S79.3 20 58.4 20 20.5 37.1 20.5 57.9 37.4 96 58.4 96zm0-70.3c17.8 0 32.2 14.5 32.2 32.3S76.1 90.2 58.4 90.2 26.1 75.7 26.1 57.9s14.5-32.2 32.3-32.2z" fill="#093F7C" data-color="1"></path>
        <path d="M162.3 127.4h-9.4v-21H27V180h125.9v-20.2h9.2l17.4 10.6V115l-17.2 12.4zm-15.1 46.9H32.6V112h114.6v62.3zm26.7-14.4l-10.2-5.8h-10.8v-21h11.3l9.7-7.7v34.5z" fill="#093F7C" data-color="1"></path>
        <path d="M58.4 73.1c8.3 0 15.1-6.8 15.1-15.1s-6.8-15.1-15.1-15.1S43.3 49.7 43.3 58 50 73.1 58.4 73.1zm0-24.5c5.2 0 9.4 4.2 9.4 9.5 0 5.2-4.2 9.5-9.4 9.5S49 63.4 49 58.1s4.1-9.5 9.4-9.5z" fill="#093F7C" data-color="1"></path>
        <path d="M131.2 78.4c6.9 0 12.6-5.7 12.6-12.6s-5.6-12.6-12.6-12.6c-6.9 0-12.6 5.7-12.6 12.6s5.5 12.6 12.6 12.6zm0-19.7c3.8 0 6.9 3.2 6.9 7s-3.1 7-6.9 7c-3.8 0-6.9-3.2-6.9-7-.1-3.8 3-7 6.9-7z" fill="#093F7C" data-color="1"></path>
    </g>
</svg>