<svg xmlns:xlink="http://www.w3.org/1999/xlink" preserveAspectRatio="xMidYMid meet" data-bbox="20 25.408 160 149.184" xmlns="http://www.w3.org/2000/svg" width="200" height="200" viewBox="20 25.408 160 149.184" data-type="color" role="presentation" aria-hidden="true"><defs><style>#comp-l9p11n10 svg [data-color="2"] {fill: #8C84FA;}
#comp-l9p11n10 svg [data-color="3"] {fill: #FFFFFF;}</style></defs>
    <g>
        <path d="M175.153 63.869v105.875H42.381V63.869h132.772z" fill="#FFFFFF" data-color="1"></path>
        <path fill="#8C84FA" d="M175.153 174.592H42.381a4.847 4.847 0 01-4.847-4.847V63.869a4.847 4.847 0 014.847-4.847h132.772A4.847 4.847 0 01180 63.869v105.875a4.848 4.848 0 01-4.847 4.848zm-127.925-9.695h123.077V68.716H47.228v96.181z" data-color="2"></path>
        <path d="M175.153 36.973v26.896H42.381V36.973h132.772z" fill="#FFFFFF" data-color="3"></path>
        <path fill="#8C84FA" d="M175.153 68.716H42.381a4.847 4.847 0 01-4.847-4.847V36.973a4.847 4.847 0 014.847-4.847h132.772A4.847 4.847 0 01180 36.973V63.87a4.847 4.847 0 01-4.847 4.846zM47.228 59.022h123.077V41.82H47.228v17.202z" data-color="2"></path>
        <path fill="#8C84FA" d="M70.415 46.666a4.847 4.847 0 01-4.847-4.847V30.255a4.847 4.847 0 119.694 0v11.563a4.848 4.848 0 01-4.847 4.848z" data-color="2"></path>
        <path fill="#8C84FA" d="M108.766 46.666a4.847 4.847 0 01-4.847-4.847V30.255a4.847 4.847 0 119.694 0v11.563a4.848 4.848 0 01-4.847 4.848z" data-color="2"></path>
        <path fill="#8C84FA" d="M147.118 46.666a4.847 4.847 0 01-4.847-4.847V30.255a4.847 4.847 0 119.694 0v11.563a4.848 4.848 0 01-4.847 4.848z" data-color="2"></path>
        <path fill="#8C84FA" d="M147.118 92.401h-4.689a2.424 2.424 0 01-2.424-2.424V85.29a2.424 2.424 0 012.424-2.424h4.689a2.424 2.424 0 012.424 2.424v4.688a2.425 2.425 0 01-2.424 2.423z" data-color="2"></path>
        <path fill="#8C84FA" d="M111.111 92.401h-4.689a2.424 2.424 0 01-2.424-2.424V85.29a2.424 2.424 0 012.424-2.424h4.689a2.424 2.424 0 012.424 2.424v4.688a2.423 2.423 0 01-2.424 2.423z" data-color="2"></path>
        <path fill="#8C84FA" d="M75.103 92.401h-4.689a2.424 2.424 0 01-2.424-2.424V85.29a2.424 2.424 0 012.424-2.424h4.689a2.424 2.424 0 012.424 2.424v4.688a2.423 2.423 0 01-2.424 2.423z" data-color="2"></path>
        <path fill="#8C84FA" d="M147.118 121.575h-4.689a2.424 2.424 0 01-2.424-2.424v-4.689a2.424 2.424 0 012.424-2.424h4.689a2.424 2.424 0 012.424 2.424v4.689a2.425 2.425 0 01-2.424 2.424z" data-color="2"></path>
        <path fill="#8C84FA" d="M111.111 121.575h-4.689a2.424 2.424 0 01-2.424-2.424v-4.689a2.424 2.424 0 012.424-2.424h4.689a2.424 2.424 0 012.424 2.424v4.689a2.424 2.424 0 01-2.424 2.424z" data-color="2"></path>
        <path fill="#8C84FA" d="M75.103 121.575h-4.689a2.424 2.424 0 01-2.424-2.424v-4.689a2.424 2.424 0 012.424-2.424h4.689a2.424 2.424 0 012.424 2.424v4.689a2.424 2.424 0 01-2.424 2.424z" data-color="2"></path>
        <path fill="#8C84FA" d="M147.118 150.747h-4.689a2.424 2.424 0 01-2.424-2.424v-4.689a2.424 2.424 0 012.424-2.424h4.689a2.424 2.424 0 012.424 2.424v4.689a2.425 2.425 0 01-2.424 2.424z" data-color="2"></path>
        <path fill="#8C84FA" d="M111.111 150.747h-4.689a2.424 2.424 0 01-2.424-2.424v-4.689a2.424 2.424 0 012.424-2.424h4.689a2.424 2.424 0 012.424 2.424v4.689a2.424 2.424 0 01-2.424 2.424z" data-color="2"></path>
        <path fill="#8C84FA" d="M75.103 150.747h-4.689a2.424 2.424 0 01-2.424-2.424v-4.689a2.424 2.424 0 012.424-2.424h4.689a2.424 2.424 0 012.424 2.424v4.689a2.424 2.424 0 01-2.424 2.424z" data-color="2"></path>
        <path d="M91.222 116.807c0 18.329-14.858 33.187-33.187 33.187-18.329 0-33.187-14.858-33.187-33.187 0-18.329 14.858-33.187 33.187-33.187 18.329 0 33.187 14.858 33.187 33.187z" fill="#FFFFFF" data-color="1"></path>
        <path fill="#8C84FA" d="M58.035 154.842C37.062 154.842 20 137.779 20 116.807s17.062-38.035 38.035-38.035S96.07 95.834 96.07 116.807s-17.063 38.035-38.035 38.035zm0-66.376c-15.627 0-28.34 12.713-28.34 28.34s12.713 28.34 28.34 28.34 28.34-12.713 28.34-28.34-12.713-28.34-28.34-28.34z" data-color="2"></path>
        <path d="M48.499 120.312h9.536l2.98-17.88" fill="#FFFFFF" data-color="1"></path>
        <path fill="#8C84FA" d="M58.035 125.159h-9.536a4.847 4.847 0 110-9.694h5.43l2.305-13.829a4.847 4.847 0 119.562 1.592l-2.98 17.88a4.847 4.847 0 01-4.781 4.051z" data-color="2"></path>
    </g>
</svg>