<svg xmlns:xlink="http://www.w3.org/1999/xlink" preserveAspectRatio="none" data-bbox="1 44 198 111.999" viewBox="1 44 198 111.999" height="200" width="200" xmlns="http://www.w3.org/2000/svg" data-type="shape" role="presentation" aria-hidden="true">
    <g stroke="#5E97FF" fill="#242323" stroke-width="0px">
        <path d="M39.051 136.113c3.247-16.532 13.9-45.182 20.337-60.805 5.329-6.368 7.714-14.362 6.67-16.407-1.908-3.736-5.525-.009-7.227 2.965-1.75 3.057-4.632 13.258-4.632 13.258-5.418 8.511-16.09 17.139-28.37 21.625a52.946 52.946 0 0 1-6.919 2.029C26.67 75.592 33.986 51.94 33.986 51.94c.508-2.091-3.166-2.646-4.09.795-.539 2.008-8.69 25.891-16.066 46.839-4.152.396-6.891.033-8.555.346-1.127.212-1.829 1.408-1.48 2.423 2.803 8.158-.774 24.843-1.763 29.092-3.201 7.129 1.942 8.083 3.332 4.728 3.142-7.285 7.529-19.592 11.927-32.579 15.834-3.454 26.048-11.207 32.718-17.842-7.508 19.883-14.465 44.46-16.038 53.125-1.564 8.617.225 14.327.225 14.327.417 4.699 8.1 3.1 5.97-1.875-1.18-2.756-2.772-6.769-1.115-15.206zM9.204 112.599c.375-6.607.06-7.618 1.164-7.838.578-.071 1.148-.15 1.713-.233-.994 2.806-1.961 5.518-2.877 8.071z" stroke="#5E97FF" fill="#242323" stroke-width="0px"></path>
        <path d="M198.555 100.273c-1.544-4.254-13.322-1.561-14.169-1.164 0 0-1.846-2.033-5.421 1.877 0 0-3.744 3.741-5.505 8.549-17.956 13.815-32.95 16.025-36.063 13.338-1.62-1.398-.797-7.699 1.393-16.006 10.146-12.726 19.454-28.078 24.666-40.191 5.302-12.324 4.94-19.472.187-19.348-1.663.043-4.835 2.665-7.266 6.162-6.247 8.986-18.496 35.668-22.821 54.579-2.98 3.474-5.45 6.027-7.12 7.665-4.89 4.296-12.708 9.938-18.179 7.879-2.743-1.032-1.368-8.565 1.365-17.273 6.433-6.245 14.404-16.009 20.774-30.215C141.547 51.255 143.049 44 137.804 44c-5.342 0-24.575 37.417-31.988 61.457a54.729 54.729 0 0 1-5.054 4.118c-3.108 2.045-17.612 11.03-32.746 11.203-9.229.105-10.292-4.478-9.369-6.901a18.8 18.8 0 0 1 .52-1.23c.108.056.22.111.342.162 0 0 2.985 1.643 7.269.452 4.284-1.191 8.238-6.331 9.255-8.832 1.352-3.327-1.561-4.478-5.841-4.108-3.555.307-10.264 3.081-14.683 10.229s-.799 15.247 10.534 14.706c20.194-.963 34.206-11.146 35.021-11.751a62.441 62.441 0 0 0 3.17-2.391c-.695 2.824-1.149 5.345-1.303 7.446-.832 11.338 3.926 13.873 14.299 8.627 3.054-1.545 5.946-3.765 8.358-5.925l.004.009c.246-.226.493-.455.739-.686a64.093 64.093 0 0 0 1.72-1.656 115.45 115.45 0 0 0 4.324-4.511c-.879 6.522-.301 11.402 2.564 13.125 9.264 5.571 28.412-6.164 37.654-12.574a9.636 9.636 0 0 0 1.206 4.037c5.781 10.352 28.657-7.986 24.756-18.733zm-40.484-41.608c9.523-15.651 6.125-.123 1.715 8.503-6.091 12.81-12.659 23.172-18.481 31.114 4.495-14.114 11.336-30.692 16.766-39.617zm-40.689 27.236c5.932-13.556 16.327-36.232 19.675-37.218s-5.232 18.366-11.192 30.01c-3.365 6.574-8.216 13.893-13.702 20.212a233.634 233.634 0 0 1 5.219-13.004zm-45.554 17.418c3.122-.343-2.557 7.23-7.388 7.312-1.911.033-3.013-.302-3.716-.704 1.957-2.825 5.371-5.977 11.104-6.608zm105.49 13.098c-.551-1.273-.133-4.198-.133-4.198.171-.338.375-.684.602-1.036l.023-.018.005-.025c1.814-2.789 5.147-5.937 6.439-8.251 1.161-.417 9.369-2.729 10.189-.3 2.236 6.626-14.272 20.421-17.125 13.828z" stroke="#5E97FF" fill="#242323" stroke-width="0px"></path>
    </g>
</svg>