<svg xmlns:xlink="http://www.w3.org/1999/xlink" preserveAspectRatio="xMidYMid meet" data-bbox="38.5 38.5 123 123" viewBox="38.5 38.5 123 123" height="200" width="200" xmlns="http://www.w3.org/2000/svg" data-type="color" role="presentation" aria-hidden="true"><defs><style>#comp-l9p0zqea svg [data-color="1"] {fill: #8C84FA;}</style></defs>
    <g>
        <path fill="#8C84FA" d="M158.572 82.429v5.857H41.429v-5.857h117.143z" data-color="1"></path>
        <path fill="#8C84FA" d="M123.428 53.143V59H76.571v-5.857h46.857z" data-color="1"></path>
        <path d="M152.714 161.5H47.286c-4.845 0-8.786-3.941-8.786-8.786V61.929c0-4.845 3.941-8.786 8.786-8.786H59V59H47.286a2.932 2.932 0 0 0-2.929 2.929v90.786a2.932 2.932 0 0 0 2.929 2.929h105.429a2.932 2.932 0 0 0 2.929-2.929V61.929A2.932 2.932 0 0 0 152.715 59H141v-5.857h11.714c4.845 0 8.786 3.941 8.786 8.786v90.786c0 4.844-3.941 8.785-8.786 8.785z" fill="#8C84FA" data-color="1"></path>
        <path d="M143.929 67.786H120.5V44.357a5.864 5.864 0 0 1 5.857-5.857h11.714a5.864 5.864 0 0 1 5.857 5.857v23.429zm-17.572-5.857h11.714V44.357h-11.714v17.572z" fill="#8C84FA" data-color="1"></path>
        <path d="M79.5 67.786H56.071V44.357a5.864 5.864 0 0 1 5.857-5.857h11.714a5.864 5.864 0 0 1 5.857 5.857v23.429zm-17.571-5.857h11.714V44.357H61.929v17.572z" fill="#8C84FA" data-color="1"></path>
        <path d="M92.713 149.021c-.824 0-1.61-.347-2.168-.958l-16.141-17.747 4.336-3.941 13.822 15.199 36.773-46.322 4.587 3.641-38.915 49.021a2.927 2.927 0 0 1-2.196 1.107h-.098z" fill="#8C84FA" data-color="1"></path>
    </g>
</svg>