<svg xmlns:xlink="http://www.w3.org/1999/xlink" preserveAspectRatio="xMidYMid meet" data-bbox="19.999 25 160.004 150.001" viewBox="19.999 25 160.004 150.001" height="200" width="200" xmlns="http://www.w3.org/2000/svg" data-type="color" role="presentation" aria-hidden="true">
    <g>
        <path d="M120.637 161.58s-5.063-19.554-5.498-20.48c-.057-.121-.247-.08-.275.04a4.98 4.98 0 0 0-.104.833c-.834-.733-2.229-1.353-2.76-1.51-1.396-.412-2.849-.116-3.994.718-.054-.07-.107-.142-.177-.202-.051.135-.08.278-.097.425-.086.073-.175.14-.256.219-.26.252.001.693.306.664.129.679.421 1.376.615 1.92.496 1.39 1.112 2.736 1.697 4.089.969 2.244 6.688 14.393 6.688 14.393l3.855-1.109z" fill="#783B36" data-color="1"></path>
        <path d="M121.328 163.126l-.003.002c.211.63.334 1.326.13 1.83-.476 1.171-2.504 5.108-4.455 6.119-1.951 1.011-2.722.092-2.89-.506-.122-.423.563-1.965 1.137-3.292.243-.565.47-1.09.603-1.475.46-1.302.932-3.115.932-3.115l3.855-1.109c0-.001.42.714.691 1.546z" fill="#783B36" data-color="1"></path>
        <path d="M121.325 163.128c.211.63.334 1.326.13 1.83-.476 1.171-2.504 5.108-4.455 6.119-1.951 1.011-2.722.092-2.89-.506-.122-.423.563-1.965 1.137-3.292 0 0 1.173.942 2.315.304 1.12-.622 3.663-4.302 3.763-4.455z" fill="#382732" data-color="2"></path>
        <path d="M123.096 167.002s5.006-19.569 5.072-20.59c.009-.133-.178-.19-.26-.097a4.95 4.95 0 0 0-.493.679c-.377-1.045-1.299-2.261-1.689-2.654-1.023-1.035-2.439-1.476-3.845-1.299-.014-.088-.025-.176-.058-.263-.11.093-.205.205-.29.325-.11.022-.221.038-.33.068-.35.095-.334.608-.052.729-.215.657-.296 1.408-.388 1.978-.236 1.456-.347 2.932-.488 4.4-.235 2.433-1.091 15.833-1.091 15.833l3.912.891z" fill="#783B36" data-color="1"></path>
        <path d="M122.954 168.69h-.004c-.12.654-.347 1.322-.77 1.666-.983.796-4.659 3.265-6.856 3.209-2.197-.056-2.429-1.233-2.287-1.838.097-.43 1.442-1.449 2.585-2.335.486-.377.938-.728 1.24-1.001 1.031-.919 2.32-2.279 2.32-2.279l3.912.889c.002.001.025.83-.14 1.689z" fill="#783B36" data-color="1"></path>
        <path d="M122.951 168.69c-.12.654-.347 1.322-.77 1.666-.983.796-4.659 3.265-6.856 3.209-2.197-.056-2.429-1.233-2.287-1.838.097-.43 1.442-1.449 2.585-2.335 0 0 .573 1.391 1.881 1.383 1.282-.003 5.286-1.999 5.447-2.085z" fill="#382732" data-color="2"></path>
        <path d="M112.497 116.83c.06-2.585-.017-4.913-.438-7.479l-.114-.695c-.271-1.65-.647-3.253-.987-4.886-.33-1.584-.292-3.116-.129-4.717.153-1.497 3.293-1.236 3.08-2.737-.199-1.401 1.951-3.679 1.665-5.061-.32-1.544-3.044-3.583-3.059-5.149-.014-1.437-2.949-3.199-3.179-4.618-.244-1.503-.663-2.949-1.053-4.417-.455-1.711-.575-3.231-.193-4.964.348-1.579.414-3.198.531-4.806.133-1.835.516-4.966.516-4.966s-2.301-.687-3.207-.804c-1.532-.197-3.188.164-4.467 1.081-.827.593-2.035 1.441-2.203 2.527-.117.758.271 1.65.478 2.362l.973 3.357c.091.313.273.532.495.668.15.465.345.902.602 1.298.213.328.71.44 1.013.2l.767 7.442 1.028 9.994c.153 1.49.247 3 .494 4.478.24 1.433.648 8.958.461 11.296-.278 3.478.11 6.893.335 10.359.01.152.056.274.124.368.021.299.047.598.081.896.113.987.206 1.665 1.263 1.852 1.015.18 3.572.414 4.493-.19.826-.546.611-1.871.63-2.689z" fill="#8C94B2" data-color="3"></path>
        <path d="M128.036 94.99l-.011.291h-.004l-.067 1.546c-.295 6.171-.8 12.42-3.292 18.046-1.345 3.041-3.243 5.827-4.375 8.946v.004c-.049.12-.09.239-.131.359-1.857 5.446-3.262 10.328-.71 17.116.254.68.493 1.356.706 2.036v.004a36.17 36.17 0 0 1 1.651 8.7v.004a36.72 36.72 0 0 1 .015 4.587v.015a5 5 0 0 0-.77.131v.004c-.026.004-.052.011-.082.019-.239.06-.478.131-.721.209-.194.06-.392.127-.583.187-.254.078-.504.157-.747.217-.179.045-1.155.28-2.118.508l-.732.176c-.729.172-1.315.31-1.341.31 0 0-9.61-19.772-10.503-24.971-1.14-6.645.856-14.127 1.397-20.847.411-5.103 2.742-11.666 3.65-16.705.758-4.232 2.089-5.476 2.089-5.476s.826-.056 1.823-.131l.796-.067a82.771 82.771 0 0 0 2.141-.194l.594-.067.762-.09c.975-.108 1.954-.22 2.933-.318l.751-.078a101.928 101.928 0 0 1 3.542-.281c.347-.022.695-.037 1.042-.052.874-.034 1.33 3.171 1.887 3.848.445.542.438 1.311.408 2.014z" fill="#F5E3CB" data-color="4"></path>
        <path d="M120.967 156.796c-.239.06-.478.131-.721.209a102.2 102.2 0 0 1-.538-1.367c-3.333-8.457-8.743-22.338-9.55-25.326-1.162-4.288.882-13.347 3.176-20.395 1.693-5.189 2.922-15.637 3.378-19.973l.762-.09c-.448 4.255-1.696 14.972-3.43 20.295-2.26 6.948-4.282 15.838-3.165 19.97.743 2.731 5.552 15.132 8.885 23.627.429 1.089.833 2.116 1.203 3.05z" fill="#FFFFFF" data-color="5"></path>
        <path d="M115.968 132.21c1.409 8.722 4.962 15.379 4.999 15.446l-.658.355c-.037-.067-3.65-6.828-5.078-15.681-.994-6.167.355-10.16 1.782-14.389.422-1.255.863-2.555 1.237-3.918 1.293-4.722 1.954-19.312 2.156-24.486l.751-.078c-.191 5.106-.848 19.869-2.186 24.762-.381 1.386-.822 2.693-1.252 3.96-1.396 4.137-2.715 8.045-1.751 14.029z" fill="#FFFFFF" data-color="5"></path>
        <path d="M137.402 120.398a35.26 35.26 0 0 1-2.656 7.561c-.815 1.677-1.782 3.358-1.917 5.218-.082 1.151.164 2.301.153 3.455-.015 2.174-.915 4.229-1.483 6.324-.777 2.88-.942 5.909-1.857 8.745-.983 3.048-.673 6.406-2.455 9.062-.209.31-.441.639-.796.758-.09.03-.59-.063-1.267-.213a30.532 30.532 0 0 1-.751-.168 134.71 134.71 0 0 1-1.868-.445c-.314-.075-.616-.146-.889-.213l-.228-.056a43.562 43.562 0 0 0-.732-.172c-.075-.015-.135-.03-.187-.041-.284-.063-.889-.288-.889-.288s.03-1.08.082-2.734c.011-.474.026-.997.045-1.554.019-.594.037-1.233.056-1.894.052-1.546.108-3.239.168-4.89a423.816 423.816 0 0 1 .22-5.517v-.004c.011-.254.022-.493.034-.725.209-4.09.235-8.188.194-12.282a326.685 326.685 0 0 0-.041-3.429c-.015-1.024-.034-2.051-.052-3.074v-.004c-.064-3.582-.123-7.161-.105-10.743 0-.362.004-.728.007-1.091a259.1 259.1 0 0 1 .026-1.763c.007-.362.019-.743.202-1.057.374-.639 1.211-.691 1.95-.908a2.68 2.68 0 0 0 .538-.205 1.807 1.807 0 0 0 .467-.355c.441-.426.661-1.05.773-1.73.108-.613.127-1.263.149-1.864.097-2.682.971-7.807 3.725-8.823h.004c.149-.056.303-.097.467-.127.235-.045.486-.056.747-.041.467.03.975.161 1.524.415 1.207.553 2.152 1.558 2.899 2.656 3.209 4.714 3.026 10.87 2.716 16.563.243-.101.478-.007.676.172a1.7 1.7 0 0 1 .411.65c.549 1.54.303 3.24-.06 4.831z" fill="#F5E3CB" data-color="4"></path>
        <path d="M123.484 46.031c-.216-.448-.459-.91-.739-1.345a6.887 6.887 0 0 0-.232-.71c-.456-1.162-1.335-2.267-2.447-2.883-.42-1.153-1.729-1.706-3.126-2.134-1.007-.309-1.843-.939-2.942-.926-.658.008-1.386.185-2.061.449a11.198 11.198 0 0 0-1.851.048c-.522.058-.839.317-1.281.558-.15.082-.213.127-.235.151a3.879 3.879 0 0 0-.414.069c-.891.182-1.583.558-2.084 1.226-.661.077-1.192.379-1.747 1.016-.563.645-1.464 1.246-1.789 2.059-.165.414-.109.826-.256 1.24-.134.38-.49.697-.614 1.113-.195.653-.141 1.2.055 1.707-.265.599-.437 1.165-.35 1.943.115 1.027.788 1.547 1.186 2.404l.051.061a3.826 3.826 0 0 0-.156.793 3.68 3.68 0 0 0 .23 1.495c.404 1.124 1.368 1.728 2.018 2.649.611.867.893 1.603 1.982 1.958 1.061.347 2.15.108 3.058-.497.566-.378.757-.987.673-1.544.046.022.089.048.135.069 1.29.603 3.236 1.067 4.889.913-.032.286.239.567.553.607.502.579 1.268.356 1.973.071.721-.292 1.288-.647 1.633-1.192a2.856 2.856 0 0 0 1.273-.746c.264-.263.484-.562.63-.907.059-.131.108-.267.15-.405l.001-.001c.622-.648 1.194-.992 1.488-1.912a3.816 3.816 0 0 0 .142-1.751c.939-1.877 1.161-3.664.204-5.646z" fill="#783B36" data-color="1"></path>
        <path d="M123.484 46.031c-.216-.448-.459-.91-.739-1.345a6.887 6.887 0 0 0-.232-.71c-.456-1.162-1.335-2.267-2.447-2.883-.42-1.153-1.729-1.706-3.126-2.134-1.007-.309-1.843-.939-2.942-.926-.658.008-1.386.185-2.061.449a11.198 11.198 0 0 0-1.851.048c-.522.058-.839.317-1.281.558-.15.082-.213.127-.235.151a3.879 3.879 0 0 0-.414.069c-.891.182-1.583.558-2.084 1.226-.661.077-1.192.379-1.747 1.016-.563.645-1.464 1.246-1.789 2.059-.165.414-.109.826-.256 1.24-.134.38-.49.697-.614 1.113-.195.653-.141 1.2.055 1.707-.265.599-.437 1.165-.35 1.943.115 1.027.788 1.547 1.186 2.404l.051.061a3.826 3.826 0 0 0-.156.793 3.68 3.68 0 0 0 .23 1.495c.404 1.124 1.368 1.728 2.018 2.649.611.867.893 1.603 1.982 1.958 1.061.347 2.15.108 3.058-.497.566-.378.757-.987.673-1.544.046.022.089.048.135.069 1.29.603 3.236 1.067 4.889.913-.032.286.239.567.553.607.502.579 1.268.356 1.973.071.721-.292 1.288-.647 1.633-1.192a2.856 2.856 0 0 0 1.273-.746c.264-.263.484-.562.63-.907.059-.131.108-.267.15-.405l.001-.001c.622-.648 1.194-.992 1.488-1.912a3.816 3.816 0 0 0 .142-1.751c.939-1.877 1.161-3.664.204-5.646z" opacity=".6"></path>
        <path d="M106.999 60.792c-.248 0-.595-.117-.951-.61-.754-1.046-.059-3.231-.029-3.324a.21.21 0 0 1 .398.128c-.007.021-.659 2.076-.029 2.95.237.329.496.482.71.423.24-.068.422-.386.453-.792.064-.854-.791-2.184-.8-2.197a.209.209 0 1 1 .351-.227c.038.059.941 1.464.866 2.457-.044.589-.341 1.046-.757 1.163a.754.754 0 0 1-.212.029z" fill="#F5E3CB" data-color="4"></path>
        <path d="M133.102 86.193c-.31.37-.755.665-1.323.911a9.562 9.562 0 0 1-1.651.538c-2.978.71-6.325.235-9.285.067-1.846-.105-3.744-.153-5.541-.642-.878-.239-1.711-.624-2.503-1.076-.194-.112-.437-.235-.691-.37h-.004c-.557-.299-1.173-.65-1.483-1.042-.112-.142-.12-.385.034-.486-1.304-2.282-2.029-4.774-2.503-7.329a50.818 50.818 0 0 1-.392-2.506c-.041-.318-.086-.635-.127-.953-.202-1.617-.359-3.257-.205-4.882.179-1.935 1.244-6.225 1.244-6.225s.467.133.703.133a7.755 7.755 0 0 1 .374.008c.105.004.205.007.31.015.127.007.254.015.385.03a7.56 7.56 0 0 1 1.532.295l-.209-.572s-.579-.071-1.304-.299a9.873 9.873 0 0 1-.684-.25c-.471-.202-.949-.467-1.334-.822-1.117-1.024-1.853-1.857-2.231-3.306-.807-3.078-1.509-6.16-.28-9.178.37-.911.971-1.894 1.976-2.174.086-.067.176-.134.265-.198.56-.381 1.106-.571 1.636-.624a2.84 2.84 0 0 1 1.315-.142c2.608.321 6.456 2.383 7.715 4.617 1.289 2.282.116 5.181-.557 7.897.011.803.631 3.123 1.162 4.961 1.02.209 2.029.452 3.034.725.034.007.071.019.105.03.213.052.422.116.631.176.176.049.355.101.531.153.318.09.631.183.945.28.915.28 1.827.583 2.731.9 1.121 2.667 2.328 5.312 3.344 8.02.46 1.823.923 3.642 1.386 5.461.157.62.329 1.244.493 1.864.194 1.998.209 4.019.456 5.995z" fill="#783B36" data-color="1"></path>
        <path d="M112.132 62.183a.21.21 0 0 1-.077-.404c.009-.004.936-.379 2.347-1.379 1.41-1 2.318-2.177 2.327-2.189a.209.209 0 1 1 .332.254c-.038.05-.956 1.241-2.417 2.276-1.456 1.032-2.395 1.411-2.434 1.426a.185.185 0 0 1-.078.016z" opacity=".4"></path>
        <path d="M108.154 53.88c-.386-.322-1.096-.106-1.461.15-.185.13-.015.434.18.307.189-.123.388-.209.613-.242.207-.03.41.03.612-.006.09-.015.125-.151.056-.209z" opacity=".7"></path>
        <path d="M114.329 52.54c-.386-.322-1.096-.106-1.461.15-.185.13-.015.434.18.307.189-.123.388-.209.613-.242.207-.03.41.03.612-.006.091-.014.126-.151.056-.209z" opacity=".7"></path>
        <path d="M134.944 115.748c-.045.101-4.674 9.854-4.999 17.549-.291 6.937-.811 9.256-1.416 11.938-.082.374-.168.755-.258 1.158-.284 1.322-.702 2.63-1.143 4.012-.687 2.152-1.397 4.378-1.752 7.034-.224 1.681-.273 2.947-.25 3.87a30.532 30.532 0 0 1-.751-.168c-.015-.941.049-2.193.262-3.799.362-2.719 1.083-4.979 1.782-7.165.433-1.363.844-2.656 1.125-3.941.086-.407.176-.788.258-1.165.598-2.648 1.11-4.935 1.401-11.808.329-7.844 5.021-17.736 5.07-17.837l.671.322z" fill="#FFFFFF" data-color="5"></path>
        <path d="M128.413 110.933c-1.33 5.816-2.903 13.406-3.295 20.523a235.212 235.212 0 0 0-.198 4.568c-.146 4.053-.25 6.978-1.14 10.426-.781 3.041-1.494 6.798-1.961 10.179v.015a70.992 70.992 0 0 0-.429 3.784 43.562 43.562 0 0 0-.732-.172c.049-.56.108-1.147.176-1.759.056-.504.123-1.024.191-1.554.007-.056.015-.108.026-.164v-.004c.205-1.531.463-3.141.755-4.733v-.004a86.83 86.83 0 0 1 1.255-5.775c.867-3.369.971-6.261 1.113-10.265.049-1.356.105-2.891.198-4.583.396-7.172 1.976-14.8 3.314-20.646 1.072-4.688.979-11.613.807-15.614.235-.045.486-.056.747-.041.171 4.041.26 11.052-.827 15.819z" fill="#FFFFFF" data-color="5"></path>
        <path d="M110.702 56.634h-.012c-.043-.002-.43-.041-.724-.683-.271-.593.127-2.349.173-2.547a.208.208 0 0 1 .251-.156.21.21 0 0 1 .156.251c-.162.695-.36 1.929-.2 2.278.184.401.376.44.378.44a.204.204 0 0 1 .192.22.214.214 0 0 1-.214.197z" opacity=".4"></path>
        <path d="M124.146 105.968c-.011 2.294-.105 4.602-.355 6.481-.616 4.606-2.541 13.802-3.411 17.878a326.685 326.685 0 0 0-.041-3.429c.953-4.557 2.231-10.96 2.712-14.55.183-1.375.28-2.985.321-4.651.149-5.547-.318-11.707-.325-11.789l.743-.056c.009.072.386 5.055.356 10.116z" fill="#FFFFFF" data-color="5"></path>
        <path d="M115.074 50.45a.323.323 0 0 0-.04-.107c-.073-.133-.229-.196-.375-.237a2.964 2.964 0 0 0-2.427.399 1.359 1.359 0 0 0-.393.377.377.377 0 0 0-.072.251c.022.157.197.254.356.25.159-.004.305-.081.448-.15.447-.214.927-.36 1.418-.433.187-.028 1.147.029 1.085-.35z" opacity=".7"></path>
        <path d="M104.85 52.892a.336.336 0 0 1-.017-.113c-.001-.152.106-.282.214-.388a2.965 2.965 0 0 1 2.318-.823c.182.017.366.052.526.14a.38.38 0 0 1 .184.185c.056.148-.05.317-.191.39-.141.073-.306.076-.464.085a4.933 4.933 0 0 0-1.45.306c-.178.067-.991.58-1.12.218z" opacity=".7"></path>
        <path d="M120.128 51.126c-.078-.445-.099-.946-.357-1.334-.299-.448-.882-.77-1.246-1.19-.838-.969-1.784-1.686-2.869-2.367a7.815 7.815 0 0 0-3.226-1.156c-1.173-.157-2.604-.394-3.753-.026-.909.29-1.877.97-2.475 1.718-.665.831-.787 1.881-.857 2.908 1.061-2.971 5.45-3.4 7.971-2.359 1.493.617 2.181 2.051 2.584 3.528.026.095.105.138.196.149.562.071 1.093-.269 1.634.063.267.164.438.455.519.758.237.887-.11 1.737-.294 2.595-.257 1.2-.195 2.376.246 3.526l.182.478s.776-4.203 1.788-5.8c.037-.098.076-.197.111-.295a11.025 11.025 0 0 0-.154-1.196z" fill="#783B36" data-color="1"></path>
        <path d="M120.128 51.124c-.078-.445-.099-.946-.357-1.334-.299-.448-.882-.77-1.246-1.19-.838-.969-1.784-1.686-2.869-2.367a7.815 7.815 0 0 0-3.226-1.156c-1.173-.157-2.604-.394-3.753-.026-.909.29-1.877.97-2.475 1.718-.665.831-.787 1.881-.857 2.908 1.061-2.971 5.45-3.4 7.971-2.359 1.493.617 2.181 2.051 2.584 3.528.026.095.105.138.196.149.562.071 1.093-.269 1.634.063.267.164.438.455.519.758.237.887-.11 1.737-.294 2.595-.257 1.2-.195 2.376.246 3.526l.182.478s.776-4.203 1.788-5.8c.037-.098.076-.197.111-.295a11.056 11.056 0 0 0-.154-1.196z" opacity=".6"></path>
        <path d="M118.371 57.321c-.249 0-.595-.117-.951-.61-.754-1.046-.059-3.231-.029-3.324a.21.21 0 0 1 .398.128c-.007.021-.659 2.076-.029 2.95.237.329.496.485.71.423.24-.068.422-.386.453-.792.064-.853-.791-2.184-.8-2.197a.209.209 0 1 1 .351-.227c.038.059.941 1.464.866 2.456-.044.589-.341 1.046-.757 1.163a.745.745 0 0 1-.212.03z" fill="#F5E3CB" data-color="4"></path>
        <path d="M111.359 90.397s7.704-.059 11.556-.494c2.391-.27 7.505-.153 7.505-.153s-1.136-7.776-1.282-9.177c-.101-.986-.105-2.036-.583-2.936-.575-1.087-1.861-1.632-2.287-2.809-.325-.9-.179-1.946-.826-2.727-.385-.463-.822-.598-1.278-.515-.041-1.401-.146-2.805-.202-4.165a91.732 91.732 0 0 0-.206-3.519 3.66 3.66 0 0 1-.007-.235c-.176-.052-.355-.105-.531-.153-.209-.06-.418-.123-.631-.176a1.379 1.379 0 0 0-.105-.03c.052.773.123 1.543.172 2.29.067 1.038.093 2.137.179 3.224.004.938-.015 1.913.06 2.861-2.881.915-5.429 2.802-6.897 5.428a13.853 13.853 0 0 0-1.39-1.969 11.19 11.19 0 0 0-2.275-2.036c-.261-.173-2.181-.984-2.19-1.084-.015-.161-.03-.317-.041-.47a32.71 32.71 0 0 0-.097-1.009c0-.247-.004-.489.004-.725.022-1.083.06-2.167.105-3.25.06-1.367.262-2.79.333-4.191-.131-.015-.258-.022-.385-.03a10.891 10.891 0 0 0-.31-.015c-.026-.004-.049-.004-.071-.004-.101-.004-.206-.004-.303-.004-.303 1.793-.34 3.664-.422 5.465a138.697 138.697 0 0 0-.138 3.545c-.411.616-.8 1.251-1.143 1.894l-.037.071a3.035 3.035 0 0 0-.095.216c-.81 1.113-.932 2.867-.453 4.067.642 1.608 1.659 2.74 2.013 4.525.382 1.925.2 3.471.671 5.378.45 1.827 1.587 2.912 1.587 2.912z" fill="#FFFFFF" data-color="5"></path>
        <path d="M111.577 57.144c-.457.12-1.287.279-1.476.829-.124.36.204.474.415.254.269-.28.894-.436 1.262-.533.338-.089.838-.009 1.105-.248.027-.024.043-.057.029-.093-.185-.489-.948-.311-1.335-.209z" opacity=".4"></path>
        <path d="M112.936 57.691c-.068.23-.198.436-.367.609a1.785 1.785 0 0 1-2.234.262.613.613 0 0 1-.209-.187l-.027-.042c-.049-.096-.049-.228.029-.308a.2.2 0 0 1 .063-.045c.028-.018.061-.029.093-.041.325-.116.675-.118 1.004-.197.333-.079.656-.214.953-.379.106-.057.208-.118.326-.146.114-.024.248-.002.326.087a.316.316 0 0 1 .046.074v.004a.525.525 0 0 1-.003.309z" fill="#FFFFFF" data-color="5"></path>
        <path d="M112.936 57.691c-.068.23-.198.436-.367.609a1.785 1.785 0 0 1-2.234.262.613.613 0 0 1-.209-.187c.229-.007.662-.068 1.414-.297.683-.209 1.129-.486 1.398-.697a.52.52 0 0 1-.002.31z" fill="#FF9A75" data-color="6"></path>
        <path d="M112.936 57.691c-.068.23-.198.436-.367.609a1.785 1.785 0 0 1-2.234.262.613.613 0 0 1-.209-.187c.229-.007.662-.068 1.414-.297.683-.209 1.129-.486 1.398-.697a.52.52 0 0 1-.002.31z" opacity=".3"></path>
        <path d="M122.495 99.882a22.693 22.693 0 0 0-3.816-1.33c.014-.041.029-.082.042-.124.015-.032.013-.057.002-.077.003-.004.008-.005.01-.01l.018-.04c.024-.053-.007-.129-.064-.148-.295-.095-.402.235-.511.449-.518 1.024-.961 2.094-1.436 3.139-.927 2.039-2.831 6.093-2.831 6.093l2.953.793s4.268-6.667 5.745-8.348c.117-.133.03-.334-.112-.397z" fill="#783B36" data-color="1"></path>
        <path d="M132.974 118.177c.02.368-.053.77.357.894.204.062.548-.077.755-.107.47-.068.945-.101 1.42-.111 1.668-.037 2.905-.196 4.45-.892a16.555 16.555 0 0 1 2.011-.745c.46-.139.424-.083.558-.492.209-.637.145-1.469.056-2.123-.365-2.707-1.34-5.325-1.757-8.041-.457-2.976-.721-5.982-1.288-8.94-.579-3.017-1.674-5.777-2.732-8.645-1.13-3.063-1.558-6.197-1.924-9.426-.339-2.984-.385-7.017-1.529-9.818-.699-1.713-2.206-4.451-5.929-4.88-3.062-.352-3.678 4.328-3.809 6.8-.132 2.477-.306 4.891-.674 7.351-.165 1.103-.259 2.331-.852 3.308-.575.948-1.548 1.617-2.196 2.518-1.035 1.438-1.505 3.077-1.576 4.832-.05 1.231.062 2.453-.131 3.676-.202 1.28-.724 2.331-1.289 3.484-.478.978-.685 1.943.288 2.661.528.389 1.283.526 1.874.763.728.292 1.412.676 2.079 1.087.355.219 1.3 1.128 1.777.879.319-.167.464-1.415.689-1.79.625-1.045 1.783-1.525 2.843-2.01.643-.294 1.185-.573 1.651-1.122.516-.608.906-1.368 1.264-2.13.206.484.406.975.579 1.486.886 2.613.58 5.106.348 7.787-.203 2.344.185 4.297.981 6.49a33.22 33.22 0 0 1 1.177 4.129c.158.712.299 1.428.433 2.146.06.325.078.653.096.981z" fill="#8C94B2" data-color="3"></path>
        <path d="M115.077 78.159a.21.21 0 0 1-.197-.139c-.003-.008-.326-.856-1.747-2.247-1.436-1.406-4.263-2.413-4.291-2.423a.21.21 0 0 1 .139-.395c.12.042 2.943 1.048 4.445 2.518 1.503 1.471 1.835 2.368 1.848 2.405a.208.208 0 0 1-.127.267.175.175 0 0 1-.07.014z" fill="#F5E3CB" data-color="4"></path>
        <path d="M116.894 78.159a.209.209 0 0 1-.166-.337c.069-.089 1.707-2.199 2.924-3.109 1.219-.911 2.868-1.514 2.938-1.54a.211.211 0 0 1 .268.125.21.21 0 0 1-.125.268c-.016.006-1.662.608-2.83 1.481-1.171.875-2.827 3.008-2.844 3.029a.205.205 0 0 1-.165.083z" fill="#F5E3CB" data-color="4"></path>
        <path d="M117.614 92.136h-6.585a.209.209 0 1 1 0-.418h6.585a.209.209 0 1 1 0 .418z" fill="#FFFFFF" data-color="5"></path>
        <path d="M129.573 94.906a.21.21 0 0 1-.17-.331c.015-.021 1.54-2.161 1.78-4.197.159-1.349.554-1.851 1.153-2.612.379-.481.851-1.081 1.425-2.093 1.419-2.5.015-4.978.001-5.003a.21.21 0 1 1 .362-.21c.064.109 1.537 2.713.001 5.419a15.642 15.642 0 0 1-1.461 2.146c-.594.754-.921 1.17-1.066 2.402-.253 2.144-1.79 4.301-1.856 4.392a.205.205 0 0 1-.169.087z" opacity=".5"></path>
        <path d="M122.922 100.23a.207.207 0 0 1-.125-.042c-.009-.006-.879-.652-2.602-1.44-1.744-.798-2.982-1.299-2.994-1.304a.21.21 0 0 1 .156-.388c.012.005 1.259.509 3.012 1.311 1.769.809 2.642 1.459 2.679 1.486a.21.21 0 0 1-.126.377z" opacity=".5"></path>
        <path d="M104.833 74.515a.21.21 0 0 1-.207-.179c-.004-.028-.405-2.833 0-5.939.406-3.118 1.749-5.504 1.806-5.604a.207.207 0 0 1 .285-.078.208.208 0 0 1 .078.285c-.013.024-1.359 2.419-1.755 5.451-.397 3.049-.004 5.797 0 5.824a.209.209 0 0 1-.207.24z" opacity=".5"></path>
        <path d="M123.42 82.169a.21.21 0 0 1-.051-.413c.039-.01 3.903-1.01 7.119-4.561 2.09-2.309 2.402-6.873 2.405-6.919a.21.21 0 0 1 .222-.196.21.21 0 0 1 .196.222c-.012.193-.324 4.758-2.512 7.174-3.305 3.65-7.288 4.676-7.328 4.686a.18.18 0 0 1-.051.007z" opacity=".5"></path>
        <path d="M114.911 71.549a1.86 1.86 0 0 1-.614-.107c-3.435-1.202-3.029-8.801-3.01-9.124a.207.207 0 0 1 .221-.197.21.21 0 0 1 .197.221c-.004.076-.408 7.606 2.731 8.704.412.144.816.103 1.235-.126 2.457-1.341 4.167-8.389 4.184-8.46a.21.21 0 0 1 .252-.155.21.21 0 0 1 .155.252c-.071.297-1.771 7.3-4.39 8.73-.319.175-.64.262-.961.262z" fill="#FFFFFF" data-color="5"></path>
        <path d="M114.005 68.262c-.267 0-.536-.044-.805-.139-3-1.06-2.466-5.625-2.442-5.819a.209.209 0 1 1 .415.051c-.006.044-.517 4.424 2.166 5.373.221.078.444.114.667.114 2.761.001 5.554-5.545 5.584-5.606a.21.21 0 1 1 .375.187c-.128.259-2.941 5.839-5.96 5.839z" fill="#FFFFFF" data-color="5"></path>
        <path d="M116.797 157.917l-.732.176c-1.737-4.255-7.618-18.744-9.057-23.567-1.857-6.231-.897-16.145.493-22.745 1.282-6.1 4.48-17.351 5.679-21.509.284-.982.456-1.569.463-1.599l.717.209c-.007.026-.149.504-.385 1.322-1.128 3.907-4.439 15.513-5.746 21.733-1.801 8.573-1.999 17.359-.504 22.372 1.443 4.834 7.398 19.503 9.072 23.608z" fill="#FFFFFF" data-color="5"></path>
        <path d="M112.6 108.73c.149-.066.297-.136.445-.203-.323-.888-.64-1.78-.922-2.675-.139-.385-.282-.77-.416-1.157a115.655 115.655 0 0 1-1.484-4.589c-.477-1.584-.805-3.262-1.427-4.795-.026-.064-.1-.087-.159-.073-.7-.139-1.685.303-2.32.564-.621.255-1.364.58-1.802 1.118l-.002-.004-.001.001c-.075-.144-.333-.062-.287.121.563 2.239 1.655 4.426 2.656 6.497 1.007 2.083 2.125 4.115 3.196 6.166.818-.381 1.693-.603 2.523-.971z" fill="#FF9A75" data-color="6"></path>
        <path d="M102.734 49.544c-.532-1.802-1.575-3.433-3.158-4.481-1.528-1.012-3.417-1.422-5.231-1.416-1.097.004-2.202.159-3.244.507-1.984.663-3.605 2.082-4.606 3.909-1.122 2.048-1.207 4.289-1.477 6.554-.257 2.155-.344 4.338-.084 6.497.187.935.375 1.874.545 2.823.025.139.02.266.003.388.697.298 1.768.077 2.38.094 1.465.039 2.881.424 4.349.175.096-.016.19-.038.285-.057l-.397.688c-.185.321.28.714.531.409.06-.072.123-.141.183-.212-.021.251.268.519.505.337.594-.456 1.132-.973 1.658-1.504a.318.318 0 0 0 .152-.052c.061-.04.117-.085.177-.125.093.173.332.273.516.093l1.58-1.543c.105.177.362.27.535.086.92-.977 1.813-1.968 2.634-3.031a.163.163 0 0 0 .003-.205c.17-.211.337-.425.495-.644a11.174 11.174 0 0 0 1.937-4.622c.26-1.515.175-3.153-.271-4.668z" fill="#783B36" data-color="1"></path>
        <path d="M79.078 162.098s10.207-19.472 10.52-20.506c.041-.135-.137-.238-.244-.162a5.148 5.148 0 0 0-.67.58c-.136-1.164-.792-2.635-1.098-3.133-.803-1.309-2.152-2.103-3.639-2.258.007-.094.016-.187.004-.284a1.823 1.823 0 0 0-.377.265c-.118-.004-.236-.014-.356-.009-.382.014-.489.545-.229.737-.379.624-.642 1.376-.874 1.94-.593 1.44-1.061 2.93-1.559 4.405-.826 2.444-1.631 4.894-2.486 7.328-.72 2.051-3.109 9.096-3.109 9.096l4.117 2.001z" fill="#FF9A75" data-color="6"></path>
        <path d="M83.887 170.964c-3.06.343-10.303-3.745-10.552-4.045-.146-.173-.205-.658-.174-1.242.016-.398.075-.848.174-1.269.248-1.037 1.628-4.313 1.628-4.313l4.113 2.003s2.433 2.921 4.156 4.526c.422.398.804.714 1.096.887 1.479.891 2.611 3.106-.441 3.453z" fill="#FF9A75" data-color="6"></path>
        <path d="M83.887 170.964c-3.06.343-10.303-3.745-10.552-4.045-.146-.173-.205-.658-.174-1.242.016-.398.075-.848.174-1.269.248-1.037 1.628-4.313 1.628-4.313l4.113 2.003s2.433 2.921 4.156 4.526c.422.398.804.714 1.096.887 1.479.891 2.611 3.106-.441 3.453z" opacity=".4"></path>
        <path d="M83.887 170.964c-3.06.343-10.303-3.745-10.552-4.045-.146-.173-.205-.658-.174-1.242l6.895 3.281s.821-1.232 1.986-1.958c.278-.173.811-.322 1.189-.377.422.398.804.714 1.096.887 1.48.892 2.612 3.107-.44 3.454z" fill="#F5E3CB" data-color="4"></path>
        <path d="M77.477 163.993a.209.209 0 0 1-.069-.407s.378-.131 1.165-.41c.822-.291.874-.291.911-.291a.209.209 0 0 1 .001.418c.017.001-.113.034-.773.267-.789.28-1.168.411-1.168.411a.17.17 0 0 1-.067.012z" fill="#FFFFFF" data-color="5"></path>
        <path d="M78.255 165.067a.209.209 0 0 1-.069-.407s.378-.131 1.165-.41c.823-.291.874-.291.911-.291a.209.209 0 0 1 .001.418c.017.001-.113.034-.773.267-.789.28-1.168.411-1.168.411a.19.19 0 0 1-.067.012z" fill="#FFFFFF" data-color="5"></path>
        <path d="M102.306 162.547s6.739-21.198 6.863-22.271c.016-.14-.178-.209-.269-.116a5.211 5.211 0 0 0-.556.69c-.341-1.121-1.249-2.452-1.638-2.888-1.023-1.145-2.492-1.686-3.983-1.574-.01-.093-.017-.187-.047-.28a1.819 1.819 0 0 0-.323.327c-.117.017-.235.028-.352.054-.374.082-.384.623-.094.766-.262.681-.387 1.468-.515 2.065-.327 1.522-.522 3.072-.75 4.611-.378 2.551-.734 5.106-1.142 7.653-.344 2.146-1.44 9.504-1.44 9.504l4.246 1.459z" fill="#FF9A75" data-color="6"></path>
        <path d="M94.431 121.606c-.76-4.9-2.462-10.052-5.12-13.913-1.465-2.129-3.625-4.069-6.208-4.15-2.242-.071-4.259 1.258-6.104 2.533.255-.4.324-.914.183-1.368-.988 1.509-1.921 3.211-1.753 5.006.122 1.296.805 2.464 1.182 3.71.562 1.858.43 3.842.506 5.781.129 3.319.877 6.58 1.307 9.874.43 3.294.527 6.726-.602 9.851-.079.22-.161.477-.037.674.08.126.225.192.363.251a85.297 85.297 0 0 0 10.509 3.707 33.145 33.145 0 0 0 2.607-5.946c1.307-4.05 3.81-7.543 3.585-11.989a39.274 39.274 0 0 0-.418-4.021z" fill="#8C94B2" data-color="3"></path>
        <path d="M108.493 118.876c-.675-2.549-3.629-12.025-5.322-14.142-.05-.062-.12-.061-.176-.028-2.297-3.574-7.255-7.031-11.557-6.282-4.307.75-7.623 4.947-6.498 9.271.645 2.479 2.269 4.464 3.708 6.522 1.606 2.297 2.205 4.787 3.352 7.286 1.219 2.657 3.448 4.776 4.315 7.606.543 1.772.563 3.639.372 5.469-.146 1.401-1.223 3.317-.741 4.714.507 1.47 3.42 1.732 4.724 2.4 2.54 1.301 7.508 2.126 7.508 2.126s3.015-7.445 3.213-11.053c.163-2.959-1.966-10.367-2.898-13.889z" fill="#8C94B2" data-color="3"></path>
        <path d="M108.499 118.88c-.676-2.549-3.629-12.025-5.322-14.142-.05-.062-.12-.061-.176-.028-2.297-3.574-7.255-7.031-11.557-6.282-3.027.527-5.557 2.759-6.407 5.538a5.64 5.64 0 0 0-1.929-.419c-2.242-.071-4.259 1.258-6.104 2.532.255-.4.324-.914.183-1.367-.988 1.509-1.921 3.21-1.753 5.006.122 1.296.805 2.464 1.182 3.709.562 1.858.43 3.842.506 5.782.129 3.319.877 6.58 1.307 9.874.43 3.294.527 6.726-.602 9.851-.079.22-.161.477-.037.674.08.126.225.192.363.251a85.297 85.297 0 0 0 10.509 3.707 33.114 33.114 0 0 0 2.607-5.946c1.26-3.903 3.622-7.291 3.592-11.511.597.944 1.129 1.922 1.46 3.004.543 1.772.563 3.639.372 5.469-.146 1.401-1.223 3.317-.741 4.714.507 1.469 3.42 1.732 4.724 2.4 2.54 1.301 7.508 2.126 7.508 2.126s3.015-7.445 3.213-11.053c.163-2.959-1.965-10.367-2.898-13.889z" opacity=".2"></path>
        <path d="M74.272 55.261a.52.52 0 0 1-.177.006c-1.017-.143-1.892-.668-2.762-1.183-1.072-.635-2.207-1.141-3.334-1.668a.42.42 0 0 1-.236-.255 14.036 14.036 0 0 1-1.492-.677c-4.99-2.668-8.183-7.675-12.786-10.879a.296.296 0 0 0-.309.001c-.399.292-1.376.737-1.443 1.327-.088.783 1.09 1.944 1.497 2.547a142.17 142.17 0 0 0 5.296 7.331c1.628 2.114 3.171 4.26 5.597 5.505 2.476 1.271 5.316 2.386 8.001 3.094a.23.23 0 0 0 .211-.047c.099.04.217.04.32-.043 1.44-1.15 2.965-3.477 1.617-5.059z" fill="#FF9A75" data-color="6"></path>
        <path d="M51.408 35.838c-.092-.142-.188-.295-.188-.464.001-1.105 1.346.323 1.592.597.742.825 1.78 2.143 1.885 3.293.103 1.118-.047 2.255-.341 3.343l-.024.086c-.132-.617-.961.263-1.418.287-.583.031-1.265-.269-1.726-.607-.756-.555-1.236-1.117-1.865-1.812-.919-1.015-2.526-1.915-2.651-2.112-.125-.197-.059-.526.171-.567a.55.55 0 0 1 .243.033c.579.174.724.274 1.303.448l-1.76-1.397c-.293-.233-.613-.519-.611-.893.002-.374.594-.643.749-.302-.121-.27-.245-.557-.21-.85.035-.294.298-.581.589-.53.131.023.242.108.347.19l.928.725c-.202-.334-.299-.881.066-1.019.232-.088.477.078.67.235 1.452 1.188 1.984 1.652 3.322 2.966l-1.071-1.65z" fill="#FF9A75" data-color="6"></path>
        <path d="M101.031 48.03a4.599 4.599 0 0 0-.214-.252c-.456-.498-.945-.811-1.45-.98a2.873 2.873 0 0 0-1.249-.439c-2.613-.281-6.831.853-8.565 2.74-1.775 1.931-1.042 5.522-1.003 8.32-.344 1.362-.707 2.718-1.318 4.012-.269.57-.572 1.123-.914 1.653-.248.384-.717.772-.851 1.2-.263.838.761 1.902 1.165 2.585.428.724.837 1.933 1.798 2.06.411.054.883-.105 1.282-.178.645-.119.567-.898 1.196-1.082 1.049-.306 2.145-2.981 2.145-2.981l.671-1.463s2.133-.002 3.568-.808c1.323-.743 2.112-1.622 2.809-2.944 1.485-2.815 2.87-5.657 2.361-8.877-.154-.97-.516-2.063-1.431-2.566z" fill="#FF9A75" data-color="6"></path>
        <path d="M91.463 101.494s-4.002 7.325-6.743 9.431c-2.741 2.107-2.18 7.084-3.395 7.07-1.214-.014-2.562-2.237-3.009-4.534-.447-2.297-2.887-3.748-2.887-3.748l2.08-6.174s3.971-3.209 6.556-3.489c2.584-.279 7.398 1.444 7.398 1.444z" fill="#FFFFFF" data-color="5"></path>
        <path d="M104.69 107.739s-5.805-4.513-6.396-4.575c-.592-.062-14.229-3.549-14.229-3.549s6.589 7.667 10.798 9.437c4.209 1.77 5.828 8.805 7.447 9.801 1.619.996.803-2.963 1.305-3.878.501-.915 1.335-.776 1.541-2.589.206-1.813-.466-4.647-.466-4.647z" fill="#FFFFFF" data-color="5"></path>
        <path d="M109.11 91.765c-.181-.887-.142-1.802-.268-2.693-.114-.8-.363-1.565-.623-2.322-.252-.733-.528-1.459-.702-2.212-.209-.918-.138-1.742-.095-2.665.071-1.672-.923-2.511-1.711-3.848-1.534-2.594-1.514-5.823-3.198-8.35-1.435-2.148-3.868-3.146-6.273-3.934-.627-.205-1.246-.394-1.849-.587a43.4 43.4 0 0 1-3.592-1.34c-.118-.047-.237-.099-.355-.15a73.104 73.104 0 0 1-4.306-2.03c-.28-.142-.564-.28-.852-.418-2.307-1.116-4.747-2.152-6.597-3.946-1.558-1.51-2.965-2.223-5.083-2.744-1.155-.284-2.342-.505-3.395-1.096-.962-.54-1.739-1.368-2.646-1.995-2.098-1.455-6.498-3.899-6.498-3.899s-.106.095-.154.142c-1.534 1.604-2.721 3.481-3.848 5.377-.39.654-.505 1.057-.055 1.735.308.461.761.792 1.211 1.096.938.627 2.015 1.214 2.287 2.405a.414.414 0 0 0 .016.075c.414 2.117.394 3.737 2.421 4.971 1.238.753 2.449 1.226 3.419 2.373.82.97 1.076 2.188 1.81 3.185.576.784 1.199 1.06 2.129 1.254 1.703.351 2.531.39 3.754 1.873a3.41 3.41 0 0 0 1.301.982c.17 2.212-.5 6.997-.707 9.209-1.068 11.408-1.955 15.268-1.955 23.023 0 5.622 2.701 4.671 2.701 4.671s3.321-4.299 8.931-6.11c7.09-2.29 20.366 4.269 20.362 3.942-.032-1.518-.288-3.02-.513-4.522-.075-.516-.15-1.033-.221-1.549a145.68 145.68 0 0 1-.54-4.549c.304.536.611 1.238 1.049 1.62.45.394.883.24 1.412.059 1.585-.544 3.083-1.344 4.487-2.251.083-.055.166-.162.154-.268-.205-1.596-1.092-2.956-1.408-4.514z" fill="#382732" data-color="2"></path>
        <path d="M84.933 61.047s.222 5.852 2.604 9.004c2.382 3.152 5.958-.934 5.958-.934l.167-4.203-3.218-1.248-5.511-2.619z" fill="#FFFFFF" data-color="5"></path>
        <path d="M107.454 171.222c-3.044.46-10.439-3.347-10.699-3.637-.152-.168-.23-.65-.221-1.234a6.94 6.94 0 0 1 .125-1.275c.208-1.046 1.462-4.372 1.462-4.372l4.186 1.843s2.543 2.826 4.327 4.363c.437.382.831.682 1.129.844 1.511.833 2.727 3.004-.309 3.468z" fill="#FF9A75" data-color="6"></path>
        <path d="M107.454 171.222c-3.044.46-10.439-3.347-10.699-3.637-.152-.168-.23-.65-.221-1.234a6.94 6.94 0 0 1 .125-1.275c.208-1.046 1.462-4.372 1.462-4.372l4.186 1.843s2.543 2.826 4.327 4.363c.437.382.831.682 1.129.844 1.511.833 2.727 3.004-.309 3.468z" opacity=".4"></path>
        <path d="M107.454 171.222c-3.044.46-10.439-3.347-10.699-3.637-.152-.168-.23-.65-.221-1.234l7.016 3.014s.774-1.263 1.91-2.032c.272-.184.798-.352 1.174-.422.437.382.831.682 1.129.844 1.511.832 2.727 3.003-.309 3.467z" fill="#F5E3CB" data-color="4"></path>
        <path d="M100.773 164.502a.209.209 0 0 1-.076-.404s.373-.146 1.149-.454c.811-.323.862-.325.899-.326a.205.205 0 0 1 .217.201.209.209 0 0 1-.199.217c.017 0-.111.038-.762.297-.778.31-1.151.456-1.151.456a.254.254 0 0 1-.077.013z" fill="#FFFFFF" data-color="5"></path>
        <path d="M101.592 165.545a.21.21 0 0 1-.076-.404s.373-.146 1.149-.455c.811-.323.862-.325.899-.326a.21.21 0 0 1 .018.418c.017 0-.111.038-.762.297-.778.31-1.151.456-1.151.456a.237.237 0 0 1-.077.014z" fill="#FFFFFF" data-color="5"></path>
        <path d="M94.863 125.491h-.006a.21.21 0 0 1-.204-.215c.001-.044.106-4.389-.28-6.511-.453-2.493-.803-5.088.308-7.011a.21.21 0 0 1 .363.209c-1.04 1.801-.698 4.311-.258 6.727.394 2.165.291 6.417.286 6.597a.209.209 0 0 1-.209.204z" fill="#382732" data-color="2"></path>
        <path d="M93.936 53.418c.101-.186.148-.407.11-.557-.133-.528-.728-.144-.872.313-.076.24.026.565.276.59.199.02.375-.142.486-.346z" opacity=".9"></path>
        <path d="M100.03 55.815c.092-.18.132-.392.092-.536-.139-.502-.7-.12-.827.32-.067.231.038.539.278.558.191.015.356-.144.457-.342z" opacity=".9"></path>
        <path d="M94.903 51.259a2.844 2.844 0 0 0-1.323-.346c-.197-.003-1.421.071-1.232.465.105.219.446.108.633.113.596.015 1.102.278 1.653.468.13.045.266.084.402.065.136-.019.27-.112.295-.247.034-.18-.127-.333-.281-.432a11.201 11.201 0 0 0-.147-.086z" fill="#783B36" data-color="1"></path>
        <path d="M99.856 53.19c.46.029.91.176 1.303.417.168.103 1.162.822.791 1.053-.207.129-.435-.148-.595-.244-.511-.306-1.079-.356-1.647-.491-.133-.032-.27-.071-.374-.16-.104-.089-.168-.239-.117-.367.068-.17.286-.213.469-.214l.17.006z" fill="#783B36" data-color="1"></path>
        <path d="M95.664 57.974a.21.21 0 0 1-.024-.417c.387-.045.795-.164.854-.251.087-.155.246-1.285.343-2.241a.21.21 0 0 1 .416.042c-.066.643-.237 2.168-.411 2.43-.203.305-.935.41-1.155.435a.164.164 0 0 1-.023.002z" opacity=".15"></path>
        <path d="M96.091 59.119a.567.567 0 0 0-.083-.063c-.287-.189-.624-.276-.928-.432a3.798 3.798 0 0 1-.834-.596c-.087-.081-.172-.167-.278-.219-.106-.052-.242-.064-.339.004-.111.077-.138.23-.134.365.008.239.087.472.207.678.205.351.533.628.913.771.38.143.809.151 1.195.023a.625.625 0 0 0 .281-.165c.072-.083.103-.21.049-.305a.263.263 0 0 0-.049-.061z" fill="#FFFFFF" data-color="5"></path>
        <path d="M93.372 63.106a.209.209 0 0 1-.119-.037c-.035-.024-.864-.605-2.05-1.938a12.17 12.17 0 0 1-1.842-2.763.21.21 0 0 1 .381-.173c.006.013.627 1.368 1.773 2.658 1.149 1.292 1.967 1.867 1.976 1.872a.21.21 0 0 1-.119.381z" opacity=".15"></path>
        <path d="M101.935 71.508c-.115-1.006-.056-2.042.023-3.038.066-.835.137-1.572.006-2.399-.148-.933-.405-1.852-.425-2.801-.03-1.45.698-2.576 1.03-3.939.396-1.624.853-3.242 1.04-4.908a10.086 10.086 0 0 0-.63-4.899c-.391-1.017-.81-2.122-1.562-2.933-1.877-2.025-3.98-2.515-3.98-2.515s-.86 1.789-2.029 2.092c-1.051.272-2.234.681-3.312 1.248a11.91 11.91 0 0 0 1.276-.888c.343-.282-.095-.715-.437-.566-.596.26-1.137.682-1.649 1.139-1.378.849-2.79 1.647-3.506 3.193a.38.38 0 0 0 .093.453c.02.077.073.141.143.187-.546.654-1.109 1.401-1.13 2.171-.005.178.167.372.354.354a.78.78 0 0 0 .296-.092c-.129 1.237-.266 2.48.221 3.655a.344.344 0 0 0 .304.219c-.35.688-.82 1.282-1.242 1.987-.068.113.066.239.177.177 1.362-.755 2.03-2.694 2.126-4.16.068-1.039-.344-2.257.136-3.231.404-.819 1.252-.54 1.955-.785.464-.162.822-.506 1.212-.79a13.208 13.208 0 0 1 2.264-1.335c1.374-.628 3.051.041 4.376-.807.009-.006.097-.06.095-.065.251.613.936.933 1.376 1.392.567.591.965.887 1.417 2.054.37.957.212 3.055.212 3.055s.151.488.145.497a6.16 6.16 0 0 0-.246.359c-.833 3.389-2.744 7.122-6.494 7.541-.513.363-1.067.641-1.607.645a.27.27 0 0 0-.265.265c-.119 3.202-.372 6.427-.152 9.629.03.442-.057 1.039.135 1.446.326.687 1.591.874 2.229 1.131.107.043.269-.048.286-.162.177-1.22.28-2.445.277-3.679l-.003-.127c.233 1.284.538 2.559.841 3.8a.275.275 0 0 0 .263.2c.345-.012.627-.093.962-.172.691-.163 1.129-.094 1.786.113.864.273 1.744.356 2.646.298.151-.01.269-.118.274-.274.029-.969-.384-1.869-.776-2.731-.293-.639-.453-1.315-.531-2.004z" fill="#783B36" data-color="1"></path>
        <path d="M101.096 75.09a.209.209 0 0 1-.202-.157c-.004-.016-.41-1.593-.834-3.411-.244-1.046-.109-2.046.021-3.014.107-.798.209-1.551.116-2.332-.437-3.659.663-6.082.71-6.183a.21.21 0 0 1 .38.176c-.011.024-1.096 2.424-.674 5.958.1.833-.01 1.649-.117 2.437-.131.973-.255 1.891-.028 2.863.423 1.813.828 3.386.832 3.401a.21.21 0 0 1-.204.262z" opacity=".4"></path>
        <path d="M98.294 74.766a.208.208 0 0 1-.206-.176c-.003-.021-.346-2.174-.562-4.045-.218-1.892.111-4.442.125-4.55a.206.206 0 0 1 .235-.18c.115.015.195.12.18.235-.003.026-.337 2.608-.124 4.448.215 1.862.556 4.005.559 4.027a.208.208 0 0 1-.174.239l-.033.002z" opacity=".4"></path>
        <path d="M85.995 60.626a.21.21 0 0 1-.209-.197c-.003-.051-.069-1.286.093-3.723.162-2.435.709-5.479.714-5.51a.21.21 0 0 1 .412.074c-.006.03-.548 3.052-.709 5.463-.161 2.407-.094 3.659-.093 3.671a.208.208 0 0 1-.197.22c-.003.002-.007.002-.011.002z" opacity=".4"></path>
        <path d="M89.3 53.748c-.716 0-.717 1.112 0 1.112.715 0 .717-1.112 0-1.112z"></path>
        <path d="M103.152 96.089a.209.209 0 0 1-.195-.134c-.022-.057-.544-1.436-.49-3.878.054-2.405.01-3.697-.637-5.977-.65-2.293-1.392-8.477-1.423-8.739a.21.21 0 1 1 .416-.05c.008.064.769 6.413 1.41 8.675.662 2.335.707 3.652.653 6.101-.052 2.35.457 3.704.462 3.718a.209.209 0 0 1-.196.284z" fill="#FFFFFF" data-color="5"></path>
        <path d="M99.275 48.011a.21.21 0 0 1-.203-.258c.002-.007.171-.75-.072-1.498-.252-.776-.41-1.058-.412-1.061a.21.21 0 0 1 .363-.208c.007.012.178.311.447 1.14.281.863.089 1.689.081 1.724a.211.211 0 0 1-.204.161z" opacity=".4"></path>
        <path d="M70.117 76.977a.208.208 0 0 1-.197-.139 3.917 3.917 0 0 1-.193-1.441c.063-.838 1.025-1.109 1.066-1.12a.208.208 0 0 1 .256.146.21.21 0 0 1-.146.257c-.007.002-.718.206-.759.748-.049.649.167 1.263.169 1.269a.208.208 0 0 1-.127.267.184.184 0 0 1-.069.013z" fill="#FF9A75" data-color="6"></path>
        <path d="M83.899 59.255l-.021-.081c-.061-.214-.164-.428-.347-.556-.183-.127-.459-.139-.614.021.021-.022-.037-.328-.046-.375a.487.487 0 0 0-.201-.343c-.189-.131-.578-.227-.765-.043.061-.061-.251-.316-.562-.374-.437-.081-.562.033-.787.151-.099-.14-.311-.164-.466-.089-.155.075-.261.223-.339.376-.127.25-.197.529-.203.809-.005.239.043.49.199.671.157.18.444.259.643.127a.812.812 0 0 0 .29.795.815.815 0 0 0 .843.083c.039.235.24.433.476.468a.584.584 0 0 0 .592-.309c.176.3.581.483.887.318.185-.1.295-.299.364-.498a2.07 2.07 0 0 0 .057-1.151z" fill="#783B36" data-color="1"></path>
        <path d="M82.726 60.514l-.024-.001a.21.21 0 0 1-.184-.232l.171-1.484a.209.209 0 1 1 .416.048l-.171 1.484a.21.21 0 0 1-.208.185z" opacity=".4"></path>
        <path d="M81.684 60.136l-.026-.002a.21.21 0 0 1-.182-.234l.218-1.743a.21.21 0 1 1 .416.052l-.218 1.743a.211.211 0 0 1-.208.184z" opacity=".4"></path>
        <path d="M80.438 59.264l-.024-.001a.21.21 0 0 1-.185-.231l.109-.965a.21.21 0 0 1 .417.047l-.109.965a.21.21 0 0 1-.208.185z" opacity=".4"></path>
        <path d="M100.519 166.601S87.42 152.042 86.632 151.44c-.103-.079-.249.042-.218.158.068.259.169.513.283.763-1.045-.258-2.523-.168-3.05-.065-1.385.269-2.502 1.173-3.115 2.403-.078-.036-.156-.074-.243-.095a1.7 1.7 0 0 0 .106.409c-.041.101-.088.199-.123.303-.111.333.311.596.56.434.415.527.977.995 1.388 1.377 1.048.974 2.18 1.856 3.288 2.76 1.837 1.497 3.686 2.98 5.504 4.499 1.533 1.28 6.685 4.894 6.685 4.894l2.822-2.679z" fill="#FF9A75" data-color="6"></path>
        <path d="M78.226 69.809a4.586 4.586 0 0 0-1.131-.801c-.513-.258-1.04-.374-1.609-.431a11.732 11.732 0 0 0-4.476.444c-1.377.416-2.943 1.094-3.993 2.115a5.57 5.57 0 0 0-1.694 3.587c-.106 1.338.239 2.693.855 3.881.272.539.616 1.072.666 1.671.056.605-.189 1.199-.444 1.754a41.1 41.1 0 0 1-3.671 6.429c-.339.489-.705 1.094-.472 1.643.144.322.455.527.766.7a13.814 13.814 0 0 0 5.664 1.749c.15.011.311.022.45-.056s.217-.228.289-.372c.761-1.549 1.527-3.093 2.294-4.636.1-.183.194-.378.367-.494.189-.133.433-.144.661-.133 1.194.061 2.382.694 3.532.366.933-.278 1.555-1.121 1.96-2.032.078-.172.15-.35.211-.533.017-.044.028-.089.044-.133.083-.244.156-.494.222-.744.006-.011.006-.028.011-.039a17.572 17.572 0 0 0 .5-2.843c.18-1.812.379-3.624.467-5.444.043-.894.127-1.821-.031-2.706-.138-.769-.387-1.528-.816-2.187a4.402 4.402 0 0 0-.622-.755z" fill="#FF9A75" data-color="6"></path>
        <path d="M78.93 78.548s1.438 2.78 1.358 3.154c-.08.373-1.904.939-1.904.939s-.075-3.211-.069-3.277c.006-.068.615-.816.615-.816z" fill="#FF9A75" data-color="6"></path>
        <path d="M78.201 78.715c.065-.183.077-.39.021-.521-.195-.461-.681-.028-.748.407-.035.229.103.509.334.497.184-.01.321-.182.393-.383z" opacity=".9"></path>
        <path d="M78.852 83.258c-.039.167-.078.328-.122.489-.006.011-.006.028-.011.039-.067.25-.139.5-.222.744-.25-.105-.805-.361-1.088-.572-.372-.278-.7-.894-.7-1.183s.244-.083.7.117c.449.188 1.387.366 1.443.366z" fill="#FFFFFF" data-color="5"></path>
        <path d="M78.65 76.197a.708.708 0 0 0-.232-.037c-.681.006-1.407.078-2.051.307-.151.053-.32.141-.343.299-.01.069.012.14.05.199.12.187 1.023.104 1.243.069.399-.065.821.048 1.205-.076.231-.075.455-.301.38-.532-.037-.115-.136-.189-.252-.229z" fill="#F5E3CB" data-color="4"></path>
        <path d="M77.193 68.805c-.659-.495-1.394-.893-2.161-1.12-1.056-.312-2.172-.377-3.273-.343-2.07.065-3.965.584-5.543 2.005-1.381 1.244-2.513 3.255-2.654 5.13-.074.993-.043 2.623-.942 3.32-.314.243-.884.269-1.259.439-.507.229-.96.573-1.313 1.004-.573.699-1.05 1.793-.403 2.591.332.41.675.371 1.084.604.895.51.879 1.273 1.514 1.888.34.329.644.305 1.064.386.607.118 1.067.341 1.579.587.73.35 1.023.5 1.685-.102.546-.497.901-1.161 1.229-1.813a18.425 18.425 0 0 1-.954 2.128c-.243.453.579.793.883.9.66.234.941-.258 1.231-.838.028-.056.048-.113.072-.17.661-.906 1.228-2.083 1.539-3.022.443-1.333.193-2.512.001-3.863-.15-1.057-.29-1.961.794-2.56.935-.516 2.144-.373 3.171-.615a8.807 8.807 0 0 0 2.526-1.042c1.001-.606 1.803-1.195 2.473-2.139.316-.445-.782-1.857-1.013-2.121a8.842 8.842 0 0 0-1.33-1.234z" fill="#F5E3CB" data-color="4"></path>
        <path d="M63.979 75.945c.013-.425-.205-.872-.47-1.226-.828-1.101-2.101-1.801-3.426-2.18-.139-.04-.292-.076-.426-.021-.388.158-.115 2.285-.109 2.695.003.183.021.396.174.496a3.646 3.646 0 0 0-.353 1.936.47.47 0 0 0 .07.238c.098.135.294.14.461.126a8.145 8.145 0 0 0 3.187-.943c.31-.167.624-.37.783-.685.07-.138.104-.286.109-.436z" fill="#F5E3CB" data-color="4"></path>
        <path d="M105.671 110.1l-.078.717v.004l-.153 1.438-.093.882s-.101.007-.295.015c-.277.015-.747.03-1.375.026-2.302-.011-6.714-.269-11.56-1.797-3.841-1.21-7.301-3.351-10.596-5.697a154.357 154.357 0 0 1-2.518-1.834c-.179-.134-.37-.28-.441-.493-.097-.288.052-.59.209-.848a7.108 7.108 0 0 1 4.371-3.123c-.157-.022-.157-.273-.03-.362.131-.086.303-.052.452-.015 1.192.314 2.186.919 3.097 1.651 1.633 1.311 2.996 3.026 4.73 4.214 3.307 2.267 7.36 3.814 11.194 4.901.347.097.882.168 1.405.22a36.847 36.847 0 0 0 1.681.101z" fill="#FF9A75" data-color="6"></path>
        <path d="M46.593 92.64a.3.3 0 0 0-.31-.041.222.222 0 0 0-.205-.045c-.598.161-1.203.34-1.808.538a40.687 40.687 0 0 0-5.941 2.484c-2.346 1.214-3.837 3.298-5.41 5.353-1.778 2.32-7.086 9.17-7.086 9.17l2.81 2.485s7.359-8.977 11.787-11.36c2.365-1.274 5.234-1.625 7.375-3.325.007-.004.011-.011.019-.015 1.885-1.527.275-4.049-1.231-5.244z" fill="#FF9A75" data-color="6"></path>
        <path d="M26.062 116.434c-.089.138-.181.286-.181.451.004 1.071 1.304-.317 1.542-.583.717-.802 1.719-2.082 1.818-3.198.096-1.084-.052-2.186-.34-3.24l-.023-.083c-.126.598-.933-.252-1.375-.274-.565-.028-1.226.264-1.672.593-.732.54-1.247 1.314-1.855 1.99a9.16 9.16 0 0 1-3.216 2.296c-.208.088-.433.18-.554.371-.121.191-.055.51.168.549a.513.513 0 0 0 .235-.033l1.682-.511-1.702 1.36c-.283.226-.593.505-.59.867.003.363.578.622.727.291-.117.262-.236.54-.201.825.035.285.29.563.573.512.127-.023.234-.105.335-.185l.897-.705c-.195.325-.287.855.067.988.225.085.463-.077.649-.23a60.132 60.132 0 0 0 4.049-3.653l-1.033 1.602z" fill="#FF9A75" data-color="6"></path>
        <path d="M88.934 153.93s-22.495-25.561-33.131-34.373c-3.902-3.233-8.246-5.913-12.795-8.149-.677-.333-1.46-.809-1.461-1.562-2.313 1.089-3.993 3.222-5.096 5.528-1.503 3.141-2.05 6.907-.68 10.109 1.06 2.479 3.147 4.379 5.382 5.888 2.235 1.508 4.672 2.705 6.873 4.262 3.984 2.817 7.075 6.719 11.151 9.418 2.101 1.391 4.473 2.344 6.649 3.616 3.589 2.098 8.006 6.063 11.642 8.994.372.3.776.619 1.254.642.339.016.664-.121.975-.255 3.136-1.355 9.237-4.118 9.237-4.118z" fill="#382732" data-color="2"></path>
        <path d="M35.704 169.721s14.608-21.17 15.327-21.853c.094-.089.252.015.234.133-.04.265-.113.528-.2.789 1.012-.368 2.49-.437 3.025-.391 1.406.119.969 3.89 1.709 5.047.074-.044.147-.091.231-.12-.001.14-.025.279-.062.418.052.096.109.188.154.288.146.319-.246.626-.511.491-.356.568-.865 1.094-1.232 1.518-.938 1.08-1.968 2.079-2.973 3.096-1.666 1.685-11.614 11.302-11.614 11.302l-4.088-.718z" fill="#FF9A75" data-color="6"></path>
        <path d="M64.416 144.964a3.662 3.662 0 0 0-.336-.599 24.328 24.328 0 0 0-2.898-3.581c-1.063-1.085-2.259-2.089-3.68-2.626-1.421-.537-3.105-.549-4.387.267.335-.291.606-.654.789-1.058a3.514 3.514 0 0 0-1.441.655c-.351.26-4.339-3.907-5.047-4.135-.073.086-.19.369-.069.469l-6.795-5.599c-.353-.291-.824-.598-1.232-.392.242.7.643 1.344 1.164 1.871a8.885 8.885 0 0 1-3.537-5.069 8.834 8.834 0 0 1-.198-3.287c.073-.575-1.29-3.834-1.29-3.834s-.785 2.521-.473 5.193c.856 7.336 8.431 13.286 14.236 17.238.247.168.509.351.612.631.081.221.048.466.001.696-.434 2.105-1.955 3.811-3.561 5.24-1.606 1.429-7.95 6.908-7.274 7.743.676.836 7.19 2.011 10.542 2.827l.707.124c.535.094 2.107.447 2.107.447s8.892-9.122 11.499-11.543c.28-.26.575-.544.657-.918.058-.261.006-.516-.096-.76z" fill="#382732" data-color="2"></path>
        <path d="M86.074 99.439c-1.947-1.778-4.592-4.781-6.77-6.253-2.466-1.666-4.906-3.403-7.585-4.71-.131-.064-.262-.123-.392-.187-2.264-1.042-4.723-1.644-7.192-1.984h-.004l-.31-.045c-2.955-.385-5.246.235-7.977 1.375-3.396 1.419-6.792 2.824-10.293 3.978-.777.258-1.465.415-1.304 1.363l.022.116c.262 1.218 1.375 1.969 2.204 2.764.602.572.971 1.3 1.349 2.028.146.284.295.568.46.844-.983 1.778-2.003 3.534-3.348 5.065-1.741 1.991-5.007 7.053-5.007 7.053h.004c.153.146 4.7 4.311 4.947 4.684 3.471 5.23 3.803 7.295 5.556 8.816 2.597 2.256 7.147-3.123 7.147-3.123a.304.304 0 0 1 .078-.064h.004c.299-.19 1.08-.31 1.33-.407a17.157 17.157 0 0 0 3.404-1.767c3.12-2.103 5.963-5.641 6.931-9.298a62.29 62.29 0 0 0 3.706-.601c3.064-.601 5.948-1.707 8.485-3.399a20.038 20.038 0 0 0 3.389-2.843c.531-.56 1.48-1.367 1.737-2.125a.387.387 0 0 0 .015-.056c.169-.574-.156-.832-.586-1.224z" fill="#FF9A75" data-color="6"></path>
        <path d="M86.073 99.433c-1.947-1.778-4.592-4.781-6.77-6.253-2.466-1.666-4.906-3.403-7.585-4.71-.131-.064-.262-.123-.392-.187-2.264-1.042-4.723-1.644-7.192-1.984h-.004l-.31-.045c-2.955-.385-5.246.235-7.977 1.375-3.396 1.42-6.792 2.824-10.293 3.978-.777.258-1.465.415-1.304 1.363l.022.116c.262 1.218 1.375 1.969 2.204 2.764.602.572.971 1.3 1.349 2.028.146.284.295.568.46.844-.983 1.778-2.003 3.534-3.348 5.065-1.741 1.991-5.007 7.053-5.007 7.053h.004c.153.146 4.7 4.311 4.947 4.684 3.471 5.23 3.803 7.295 5.556 8.816 2.597 2.256 7.147-3.123 7.147-3.123a.304.304 0 0 1 .078-.064h.004c.299-.191 1.08-.31 1.33-.407a17.157 17.157 0 0 0 3.404-1.767c3.12-2.103 5.963-5.641 6.931-9.298a62.29 62.29 0 0 0 3.706-.601c3.064-.601 5.948-1.707 8.485-3.399a20.038 20.038 0 0 0 3.389-2.843c.531-.56 1.479-1.367 1.737-2.125a.387.387 0 0 0 .015-.056c.169-.574-.156-.832-.586-1.224z" opacity=".4"></path>
        <path d="M110.549 172.095c-.644.186-13.189.367-13.556 0-.106-.104-.211-.455-.305-.91-.239-1.145-.422-2.926-.422-2.926s1.588.175 2.749-.625c1.505-1.041 1.988-1.671 2.732-1.403 2.21.789 5.165 1.874 6.675 2.542 1.494.658 2.199 1.671 2.371 2.411.117.478.012.84-.244.911z" fill="#382732" data-color="2"></path>
        <path d="M110.593 172.32c-.644.189-13.189.372-13.556 0-.105-.105-.211-.461-.305-.922h14.105c.117.483.012.849-.244.922z" fill="#F5E3CB" data-color="4"></path>
        <path d="M103.147 168.556a.225.225 0 0 1-.068-.011l-2.811-.972a.21.21 0 0 1 .137-.395l2.811.972a.21.21 0 0 1-.069.406z" fill="#F5E3CB" data-color="4"></path>
        <path d="M49.341 173.804c-.648.169-13.194.057-13.552-.314-.103-.105-.201-.455-.284-.907-.212-1.138.201-2.903.201-2.903s2.269.303 3.448-.462c1.528-.995 1.616-1.254 2.354-.971 2.192.832 4.289 1.528 5.784 2.224 1.478.685 2.16 1.704 2.315 2.439.105.475-.009.83-.266.894z" fill="#382732" data-color="2"></path>
        <path d="M49.338 173.871c-.648.174-13.194.066-13.552-.314-.103-.108-.2-.466-.284-.928l14.113.325c.105.485-.02.851-.277.917z" fill="#F5E3CB" data-color="4"></path>
        <path d="M43.107 170.422a.208.208 0 0 1-.073-.013l-2.788-1.037a.209.209 0 1 1 .146-.392l2.788 1.037a.21.21 0 0 1-.073.405z" fill="#F5E3CB" data-color="4"></path>
        <path d="M62.185 146.521a.204.204 0 0 1-.111-.032l-20.348-12.831a.208.208 0 0 1-.065-.288.21.21 0 0 1 .289-.065l20.348 12.831a.208.208 0 0 1-.113.385z" fill="#FFFFFF" data-color="5"></path>
        <path d="M61.667 147.276l-.027-.002-11.022-1.426a.21.21 0 0 1-.181-.234.213.213 0 0 1 .234-.181l11.022 1.426a.21.21 0 0 1-.026.417z" fill="#FFFFFF" data-color="5"></path>
        <path d="M54.043 121.65c-.665 0-1.395-.169-2.143-.633-2.636-1.636-4.892-5.167-4.986-5.317a.21.21 0 1 1 .354-.224c.023.036 2.3 3.601 4.854 5.185 2.462 1.528 4.706-.499 4.728-.519a.21.21 0 0 1 .284.308c-.018.016-1.329 1.2-3.091 1.2z" opacity=".4"></path>
        <path d="M49.083 98.112a.21.21 0 0 1-.173-.327c.163-.24 4.028-5.901 6.495-8.067 2.487-2.184 4.42-2.625 4.5-2.643a.209.209 0 0 1 .09.408c-.019.004-1.916.443-4.314 2.548-2.427 2.13-6.385 7.93-6.425 7.988a.207.207 0 0 1-.173.093z" opacity=".4"></path>
        <path d="M69.463 107.981h-.014a.21.21 0 0 1-.195-.223c.003-.045.313-4.505 1.518-8.11 1.212-3.624 4.493-7.057 4.632-7.201a.21.21 0 0 1 .302.29c-.034.035-3.355 3.51-4.537 7.043-1.189 3.555-1.495 7.961-1.498 8.005a.208.208 0 0 1-.208.196z" opacity=".4"></path>
        <path d="M57.398 116.86c-.137 0-.274-.002-.414-.007-7.669-.271-12.559-3.57-12.608-3.603a.21.21 0 0 1-.054-.291.21.21 0 0 1 .291-.054c.048.032 4.845 3.264 12.386 3.53 7.452.257 10.817-6.945 10.85-7.017a.21.21 0 0 1 .381.173c-.033.073-3.375 7.269-10.832 7.269z" opacity=".4"></path>
        <path d="M64.387 84.592a.21.21 0 0 1-.165-.339c.028-.036.704-.893 1.76-1.774 1.21-1.01 1.245-3.142 1.245-3.382a.209.209 0 1 1 .418 0c0 .26-.039 2.571-1.395 3.703a12.855 12.855 0 0 0-1.698 1.711.21.21 0 0 1-.165.081z" fill="#FFFFFF" data-color="5"></path>
        <path d="M62.546 83.566a.209.209 0 0 1-.073-.405c.007-.003.251-.106 1.067-.699.824-.598 1.53-1.95 1.537-1.964a.209.209 0 1 1 .372.192c-.03.059-.758 1.454-1.663 2.111-.873.633-1.139.742-1.166.752a.218.218 0 0 1-.074.013z" fill="#FFFFFF" data-color="5"></path>
        <path d="M60.523 81.029a.208.208 0 0 1-.204-.253c.008-.037.222-.918 1.945-1.862 1.519-.832 1.507-2.136 1.506-2.191a.211.211 0 0 1 .204-.215.212.212 0 0 1 .215.202c.002.065.029 1.611-1.723 2.57-1.531.838-1.737 1.581-1.738 1.589a.213.213 0 0 1-.205.16z" fill="#FFFFFF" data-color="5"></path>
        <path d="M64.66 76.378c-.125 0-.185-.012-.197-.014a.21.21 0 1 1 .089-.409c.012.002 1.647.246 7.51-2.841 2.519-1.326 6.267-1.806 6.425-1.826a.21.21 0 0 1 .234.182.21.21 0 0 1-.182.234c-.038.005-3.831.49-6.282 1.781-5.011 2.638-7.011 2.893-7.597 2.893z" fill="#FFFFFF" data-color="5"></path>
        <path d="M65.074 75.252a.209.209 0 0 1-.128-.375c.106-.081 2.616-1.991 4.158-2.717 1.53-.72 2.769-1.061 2.896-1.061a.209.209 0 1 1 0 .418c-.078.014-1.213.313-2.718 1.021-1.502.706-4.057 2.651-4.082 2.67a.2.2 0 0 1-.126.044z" fill="#FFFFFF" data-color="5"></path>
        <path d="M110.3 111.095c.335.014.768.015 1.034-.223.074-.066.108-.145.078-.243-.113-.367-.633-.358-.951-.4a8.535 8.535 0 0 0-.982-.064c.103.001 1.595.09 1.853-.389.169-.313-.054-.45-.41-.502a.237.237 0 0 0 .028-.225c-.096-.267-.158-.409-.461-.477-.327-.073-.674-.039-1.004-.009a7.14 7.14 0 0 0-1.279.257c-1.316.369-2.693 1.107-3.82 1.865-.106.071-.092.206-.021.283a.652.652 0 0 0 .008.402c.153.501.388 1.615.971 1.771.331.088.693-.028 1.016-.104.337-.079.683-.111 1.024-.178.92-.178 1.814-.479 2.715-.727.163-.045.387-.072.509-.209.151-.17.129-.38-.028-.522-.282-.255-.847-.216-1.325-.219.093-.044.19-.082.289-.112.251.006.502.015.756.025z" fill="#FF9A75" data-color="6"></path>
        <path d="M105.801 111.646a1.057 1.057 0 0 1-.362.613 1.275 1.275 0 0 1-.273.198c-.03.235-.067.471-.116.699-.277.015-.747.03-1.375.026.041-.247.086-.489.127-.736a1.157 1.157 0 0 1-.153-.112.866.866 0 0 1-.288-.273 1.184 1.184 0 0 1-.146-.926c.116-.422.403-.669.758-.773 0-.12.004-.243.015-.362.486.041.968.071 1.289.086.004.153.007.31.007.471.116.075.22.161.306.262v.004c.185.21.279.491.211.823z" fill="#382732" data-color="2"></path>
        <path d="M105.29 111.117a.792.792 0 0 0-.281-.331c-.439-.29-1.17-.108-1.362.4a.774.774 0 0 0 .089.706c.24.341.749.423 1.124.242.255-.123.462-.366.493-.647a.703.703 0 0 0-.063-.37z" fill="#F5E3CB" data-color="4"></path>
        <path d="M114.167 107.577c-.832-.514-1.798-.681-2.774-.518-1.008.169-2.224 1.02-1.633 2.17.205.4.45.781.656 1.182.116.226.233.461.505.523.525.119.72-.499.529-.885-.165-.333-.461-.612-.655-.931-.01-.017-.019-.036-.028-.054.073.135.865.229 1.044.35.302.203.432.514.506.859.086.402.179.803.593.983.769.333.302-1.271.205-1.49-.054-.124-.284-.749-.284-.749s.455.625.593.992c.131.349.122.814.489 1.015a.276.276 0 0 0 .275 0c.173-.107.242-.278.256-.472.145.138.372.104.445-.101a1.17 1.17 0 0 0 .032-.678c.166.074.41-.015.396-.238-.048-.779-.329-1.398-.981-1.848a5.477 5.477 0 0 0-.169-.11z" fill="#FF9A75" data-color="6"></path>
        <path d="M117.356 107.308c-.088-.028-.19-.013-.284.075-.041.039-.088.07-.132.106a.322.322 0 0 0-.346-.134c-.369.093-.735.197-1.098.309.077-.072.154-.145.234-.215.296-.258-.081-.682-.401-.519l-.436.221s-2.212-.327-3.636 1.419c-.45.551-1.647 2.108-1.088 2.831.05.065.165.087.24.063a.678.678 0 0 0 .214-.12c-.06.326-.051.63.1.838.053.073.126.107.216.088.259-.055.421-.284.542-.551-.027.332.064.558.399.512.297-.041.507-.465.661-.823a.643.643 0 0 0 .143.103c.082.043.197.058.277 0 .402-.288.633-.771.843-1.211.215-.449 1.507-.381 1.893-.542.321-.134 1.165-1.133 1.165-1.133s.428-1.091.494-1.317z" fill="#783B36" data-color="1"></path>
        <path d="M165.673 59.535a.535.535 0 0 0 .111-.139c.493-.9.595-1.916.701-2.921.131-1.238.403-2.451.653-3.67a.414.414 0 0 0-.064-.341c.144-.53.267-1.062.348-1.601.841-5.595-1.749-16.582-1.749-16.582l3.92-1s1.985 7.277 2.802 10.179c.723 2.568 1.438 6.476.988 9.165-.459 2.745-1.261 5.687-2.297 8.263a.232.232 0 0 1-.164.141.31.31 0 0 1-.225.231c-1.781.468-4.559.301-5.024-1.725z" fill="#FF9A75" data-color="6"></path>
        <path d="M114.741 108.512c-.26.212-.605.474-.961.443-.098-.009-.173-.051-.208-.148-.131-.361.291-.666.52-.891.236-.231.488-.441.747-.641-.082.063-1.221 1.029-1.715.802-.323-.149-.228-.392.026-.648a.237.237 0 0 1-.158-.163c-.084-.271-.119-.422.082-.658.217-.255.516-.436.797-.61.37-.229.772-.405 1.177-.563 1.274-.495 2.818-.732 4.175-.802.127-.007.198.11.187.214.097.067.178.17.235.326.179.493.66 1.524.287 1.999-.212.27-.572.394-.875.527-.317.139-.613.321-.925.473-.843.41-1.738.706-2.608 1.049-.157.062-.353.175-.532.139-.223-.045-.331-.227-.291-.434.072-.373.548-.681.928-.97a2.253 2.253 0 0 0-.299.084 40.56 40.56 0 0 0-.589.472z" fill="#FF9A75" data-color="6"></path>
        <path fill="#FF9A75" d="M118.286 104.707l10.303-8.827 3.138 4.407-12.148 7.171-.969-1.935-.324-.816z" data-color="6"></path>
        <path d="M150.271 167.326s-9.634-20.049-9.907-21.094c-.036-.136.147-.232.25-.153.232.178.444.386.647.605.181-1.158.894-2.603 1.218-3.088.853-1.277 2.232-2.018 3.724-2.115-.003-.094-.009-.188.007-.284.133.075.253.171.366.279.119.001.236-.005.356.004.381.029.467.563.2.745.354.638.588 1.4.798 1.972.537 1.462.946 2.969 1.387 4.462.73 2.474 1.44 4.953 2.2 7.418.64 2.077 2.754 9.209 2.754 9.209l-4 2.04z" fill="#FF9A75" data-color="6"></path>
        <path d="M162.204 166.107s-11.593-18.984-11.969-19.996c-.049-.132.123-.246.234-.177.248.153.48.339.704.537.064-1.17.629-2.679.903-3.195.721-1.356 2.018-2.231 3.493-2.477-.013-.093-.028-.186-.021-.283.14.061.269.145.392.241.118-.011.235-.028.354-.031.382-.009.521.514.274.721.416.599.725 1.334.992 1.883.68 1.401 1.239 2.86 1.827 4.3.974 2.388 1.929 4.784 2.932 7.161.845 2.003 3.662 8.888 3.662 8.888l-3.777 2.428z" fill="#FF9A75" data-color="6"></path>
        <path d="M175.117 106.92c-.169-.339-.674-.096-.592.25.044.186.087.373.129.562-1.74-1.561-5.018-1.038-7.047-.487-2.167.589-4.314-.256-6.178 1.148-.54-.245-1.81-.337-2.382-.374-2.411-.155-8.996 3.342-8.996 3.342s-4.569 5.537-7.724 8.715c-1.614 1.626-7.352 8.816-8.391 10.448-2.06 3.234.373 7.062 2.033 9.9 2.036 3.483 3.429 7.219 5.047 10.901.935 2.126 2.044 4.089 3.269 6.057.578.927.786 1.824 1.011 2.869.094.434.224.825.467 1.147 3.111-.241 6.354-.194 8.528-2.539-.425-2.055-1.504-3.905-1.846-6.001a14.553 14.553 0 0 0-.304-1.492c.389.552.766 1.115 1.111 1.711 1.24 2.146 2.437 4.318 3.657 6.476 1.683-.171 3.16-.948 4.675-1.712.982-.495 2.007-.921 2.987-1.424l-.179-.518c-.563-2.224-1.509-4.283-1.38-6.732.067-1.277.156-2.495-.277-3.719-.402-1.136-1.169-2.088-1.769-3.118-1.485-2.554.656-3.478-.903-6.054-.523-.863-2.449-2-2.103-3.17 2.43-1.112 5.478-3.498 7.904-4.62 2.802-1.296 4.955-3.025 7.263-5.15 4.14-3.807 4.36-11.648 1.99-16.416z" fill="#FF9A75" data-color="6"></path>
        <path d="M175.117 106.92c-.169-.339-.674-.096-.592.25.044.186.087.373.129.562-1.74-1.561-5.018-1.038-7.047-.487-2.167.589-4.314-.256-6.178 1.148-.54-.245-1.81-.337-2.382-.374-2.411-.155-8.996 3.342-8.996 3.342s-4.569 5.537-7.724 8.715c-1.614 1.626-7.352 8.816-8.391 10.448-2.06 3.234.373 7.062 2.033 9.9 2.036 3.483 3.429 7.219 5.047 10.901.935 2.126 2.044 4.089 3.269 6.057.578.927.786 1.824 1.011 2.869.094.434.224.825.467 1.147 3.111-.241 6.354-.194 8.528-2.539-.425-2.055-1.504-3.905-1.846-6.001a14.553 14.553 0 0 0-.304-1.492c.389.552.766 1.115 1.111 1.711 1.24 2.146 2.437 4.318 3.657 6.476 1.683-.171 3.16-.948 4.675-1.712.982-.495 2.007-.921 2.987-1.424l-.179-.518c-.563-2.224-1.509-4.283-1.38-6.732.067-1.277.156-2.495-.277-3.719-.402-1.136-1.169-2.088-1.769-3.118-1.485-2.554.656-3.478-.903-6.054-.523-.863-2.449-2-2.103-3.17 2.43-1.112 5.478-3.498 7.904-4.62 2.802-1.296 4.955-3.025 7.263-5.15 4.14-3.807 4.36-11.648 1.99-16.416z" opacity=".4"></path>
        <path d="M153.594 74.828c-.371-.015-.747.339-1.02.524-.229.155-.453.314-.677.475a.356.356 0 0 0-.182-.307c.033-.147.065-.295.088-.447.057-.372-.437-.501-.61-.188l-.09.164c.055-.391.014-.774-.213-1.042-.025-.03-.088-.036-.103.01-.094.302-.035.582-.073.9a2.668 2.668 0 0 1-.52 1.302c-.565.737-1.499.972-2.202 1.532-.177.141-.029.442.194.356.05-.019.101-.043.152-.063.06.083.157.141.286.136 1.334-.052 2.675-.247 3.942-.68.728-.249 1.491-.63 1.67-1.451.103-.469-.05-1.197-.642-1.221z" fill="#FF9A75" data-color="6"></path>
        <path d="M154.876 74.241c.487.685 1.338.736 2.105.68 1.335-.099 2.646-.446 3.893-.921a.327.327 0 0 0 .21-.238c.055-.001.111.001.165-.001.238-.008.257-.343.039-.403-.866-.24-1.818-.09-2.626-.546a2.668 2.668 0 0 1-.99-.994c-.16-.278-.215-.559-.42-.8-.032-.037-.087-.007-.099.031-.104.336.009.704.213 1.042l-.147-.116c-.282-.221-.685.092-.487.412.081.131.168.254.256.377a.357.357 0 0 0-.046.354 28.37 28.37 0 0 0-.809-.171c-.324-.063-.809-.241-1.144-.081-.536.254-.391.984-.113 1.375z" fill="#FF9A75" data-color="6"></path>
        <path d="M162.178 66.196c-.642-1.246-1.802-2.103-2.532-3.29-.903-1.469-1.097-3.147-1.698-4.726-.599-1.575-1.755-3.146-3.157-4.104.009-.006.021-.01.03-.017.545-.371.853-1.092.583-1.73-.125-.295-.351-.502-.613-.668.132-.519.105-1.02-.363-1.537a1.912 1.912 0 0 0-1.297-.623 2.28 2.28 0 0 0-.664.051c-.131.029-.26.064-.388.102l-.015.005a1.035 1.035 0 0 0-.807.115c-.633.365-1.186 1.149-1.387 1.843-.151.522-.062.94.192 1.307.012.045.027.089.042.134-1.309.039-2.657.249-3.802.67a9.414 9.414 0 0 0-4.695 3.854c-.237.389-.442.8-.597 1.228a5.765 5.765 0 0 0-.138.437c-.792 1.836-.028 4.069.468 5.993.459 1.78.818 3.349.624 5.197-.136 1.295-.364 2.702.102 3.96.105.284.261.637.577.747.445.154.954-.311 1.383-.362.672-.08 1.298-.032 1.963-.214.736-.202 1.449-.493 2.164-.757.659-.243 1.319-.481 1.975-.733.513-.198 1.441-.46 1.791-.94.538-.737-.681-1.544-1.112-1.988-.93-.957-1.773-1.975-2.628-2.989.202-.177.404-.353.612-.525.867-.716 1.806-1.344 2.839-1.796.408-.178 3.252-1.16 3.791-.57.082 1.066.131 2.122.118 3.216-.011.889-.248 2.686.545 3.363.309.264.681.248 1.045.14.715-.211 1.428-.352 2.149-.541.593-.156.785-.396 1.205-.792.591-.559 1.187-.312 1.815-.664.956-.537.247-2.083-.12-2.796z" fill="#783B36" data-color="1"></path>
        <path d="M142.238 60.473c-.423.389.934 5.327 1.11 6.056.484 2.01 1.682 4.514 3.374 5.783 1.663 1.247 3.35.959 3.35.959l1.481 5.048s1.438 1.423 3.558.697c2.172-.744 3.529-2.993 3.529-2.993s-2.119-6.456-2.074-7.86c.809-2.678 1.811-4.687.637-7.033-.798-1.595-2.416-2.775-3.93-3.632-1.674-.948-3.586-1.745-5.517-1.168-1.5.449-5.518 4.143-5.518 4.143z" fill="#FF9A75" data-color="6"></path>
        <path d="M151.776 64.036c-.053-.205-.046-.43.027-.567.255-.481.741.035.772.513.016.251-.16.542-.409.507-.2-.029-.332-.229-.39-.453z" opacity=".9"></path>
        <path d="M144.505 65.762c-.053-.205-.046-.43.027-.567.255-.481.741.035.772.513.016.251-.16.542-.409.507-.2-.029-.332-.228-.39-.453z" opacity=".9"></path>
        <path d="M148.644 67.91a.2.2 0 0 1-.054-.007c-.035-.009-.858-.239-.841-.959.014-.568.213-2.202.221-2.271a.208.208 0 0 1 .233-.182.209.209 0 0 1 .182.233c-.002.017-.205 1.683-.218 2.231-.01.391.526.544.531.545a.209.209 0 0 1-.054.41z" opacity=".15"></path>
        <path d="M145.726 62.599a.906.906 0 0 0-.242-.044 3.464 3.464 0 0 0-2.078.52c-.255.161-.5.369-.604.653a.387.387 0 0 0-.018.259c.039.111.155.18.272.196a.859.859 0 0 0 .347-.044c.401-.113.757-.315 1.147-.451.38-.133.804-.143 1.149-.369.189-.124.342-.374.227-.568a.36.36 0 0 0-.2-.152z" fill="#783B36" data-color="1"></path>
        <path d="M153.477 61.073a.944.944 0 0 0-.227-.096 3.466 3.466 0 0 0-2.141.059c-.284.102-.568.253-.73.507a.383.383 0 0 0-.074.249c.015.117.113.209.223.25a.87.87 0 0 0 .349.032c.416-.024.807-.144 1.217-.193.4-.047.816.034 1.201-.113.211-.08.415-.291.345-.505a.356.356 0 0 0-.163-.19z" fill="#783B36" data-color="1"></path>
        <path d="M159.452 67.933c-.844-.531-1.265-6.216-2.378-8.183-.969-1.711-3.141-2.549-4.835-3.343-.963-.452-2.054-.98-3.129-1.085-.953-.093-1.792.313-2.606.759-.835.457-1.631.952-2.306 1.612a2.377 2.377 0 0 1-.179-.196c-.085-.108-.233-.013-.201.109.032.123.081.233.138.338-.048.053-.098.104-.145.159-.606.714-1.095 1.528-1.581 2.334-.037-.109-.162-.178-.293-.098-.148.091-.315.202-.302.396a.098.098 0 0 0 .02.051c-.008.016-.019.03-.027.047-.066.137.071.275.195.269-.033.053-.064.107-.097.159-.132.209.109.455.281.346a9.277 9.277 0 0 0-.211 1.292c-.093.834-.237 1.785.023 2.595.043.133.219.088.249-.025.385-1.421-.043-3.024.641-4.398.516-1.036 1.416-1.634 2.304-2.269.729.301 1.628.393 2.265.486 1.849.27 4.004.368 5.447 1.719.029.027.054.056.082.084.213.169.42.371.661.474.31.132.553-.017.839-.138.455-.193.974-.403 1.449-.142.035.019.061.046.092.067.014.006.027.01.041.017.742.41.83 1.38.878 2.15-.022.275-.046.549-.086.823-.074.511-.239.966-.423 1.422.054.618.372 2.532.372 2.532s.118-.121.278-.084c.233.054.294-.311.062-.365-.052-.012-.042-.301-.043-.328a.946.946 0 0 1 .054-.358c.682.505 1.42.939 2.169 1.252.287.12.588-.3.302-.48z" fill="#783B36" data-color="1"></path>
        <path d="M161.537 68.22a.21.21 0 0 1-.197-.138c-.006-.018-.658-1.781-2.304-3.572-1.722-1.875-2.048-4.416-2.061-4.523a.21.21 0 0 1 .415-.051c.003.025.325 2.517 1.954 4.291 1.705 1.857 2.362 3.638 2.389 3.713a.21.21 0 0 1-.125.268.216.216 0 0 1-.071.012z" opacity=".4"></path>
        <path d="M160.056 68.894a.208.208 0 0 1-.2-.148c-.003-.011-.347-1.13-.763-1.736-.416-.606-1.479-1.429-1.49-1.437a.208.208 0 0 1-.038-.293.208.208 0 0 1 .293-.038c.046.035 1.126.872 1.579 1.531.453.659.804 1.803.818 1.851a.21.21 0 0 1-.199.27z" opacity=".4"></path>
        <path d="M143.479 74.181a.209.209 0 0 1-.191-.125c-.021-.047-.508-1.174-.282-2.762.212-1.492-.434-4.309-.441-4.337a.209.209 0 1 1 .408-.094c.027.119.67 2.922.447 4.49-.208 1.464.246 2.524.251 2.535a.21.21 0 0 1-.107.276.218.218 0 0 1-.085.017z" opacity=".4"></path>
        <path d="M150.736 73.452a.209.209 0 0 1-.079-.403c.012-.005 1.243-.517 2.264-1.666 1.031-1.16 1.503-2.225 1.507-2.236a.209.209 0 1 1 .383.167c-.02.046-.5 1.133-1.578 2.346-1.088 1.225-2.365 1.754-2.419 1.776a.195.195 0 0 1-.078.016z" opacity=".15"></path>
        <path d="M144.918 58.559a.208.208 0 0 1-.208-.193c-.005-.059-.105-1.463.491-2.624.588-1.147 1.572-1.971 1.614-2.006a.208.208 0 0 1 .294.027.208.208 0 0 1-.027.294c-.01.008-.961.807-1.509 1.875-.541 1.054-.447 2.387-.446 2.401a.21.21 0 0 1-.209.226z" opacity=".4"></path>
        <path d="M154.336 54.178a.211.211 0 0 1-.119-.037c-.011-.007-1.082-.737-2.185-.862-1.134-.128-1.55-.122-1.555-.121-.125-.012-.211-.089-.214-.204a.209.209 0 0 1 .204-.214c.018 0 .44-.009 1.612.124 1.209.137 2.329.9 2.376.933a.21.21 0 0 1 .054.291.212.212 0 0 1-.173.09z" opacity=".4"></path>
        <path d="M173.652 90.67c-.773-4.449-.545-9.014-1.039-13.492.015-.097.034-.194.045-.291.194-1.408.064-2.809.034-4.221-.004-.101-.004-.205-.004-.306 0-.497.034-.99.086-1.475.105-1.057.299-2.099.456-3.168.213-1.457.224-2.921.258-4.389.041-1.644.258-3.194.587-4.8.291-1.423.273-2.861.288-4.303.019-1.494.172-3.074-.041-4.561.007-.12-.045-.239-.187-.284l-.375-.119a20.592 20.592 0 0 1-2.179-.408c-1.517-.177-3.004-.41-4.432-.919a1.736 1.736 0 0 0-.359.509c-.336.691-.37 1.528-.616 2.256-.254.747-.598 1.461-.9 2.189-.628 1.513-1.039 3.097-1.289 4.714-.105.68-.183 1.367-.243 2.054-.512 1.707-.983 3.418-1.726 4.804a69.928 69.928 0 0 0-1.745 3.459 39.546 39.546 0 0 0-.953 2.189c-.687 1.722-1.151 3.825-2.66 5.11-1.887 1.61-4.625 1.263-6.834.628-3.744-1.08-7.637 3.564-9.781 5.958l-.258.288-.986 1.095c-2.903 3.186-5.765 6.152-9.045 9.085-1.003.896-2.848 2.047-3.078 3.503 1.495 1.298 2.993 2.607 4.229 4.161.381.478.714.982 1.022 1.501 1.304-.272 2.514-1.474 3.488-2.164 1.098-.781 2.036-.829 3.288-1.102 1.155-.254 1.651-.788 2.488-1.565a7.653 7.653 0 0 1 1.027-.796c.407-.269.837-.508 1.282-.728.706-.359 1.442-.676 2.167-1.001.426 1.984 1.285 3.844 1.924 5.764.355 1.072.65 2.174.732 3.302.09 1.218-.037 2.439.112 3.653a10.89 10.89 0 0 0 .796 2.97c.239.553.531 1.076.822 1.595 3.673-1.487 7.659-2.051 11.582-2.533.37-.049.729.303.826.628 1.308 4.43 15.644 12.891 17.269 5.476.912-4.143-.635-8.016-2.1-11.819-1.568-4.065-3.227-8.136-3.978-12.447z" fill="#382732" data-color="2"></path>
        <path d="M151.249 149.706a.207.207 0 0 1-.167-.083c-.391-.514-9.585-12.644-10.204-17.5-.627-4.915 13.886-16.746 14.504-17.247a.208.208 0 0 1 .294.031.208.208 0 0 1-.031.294c-.15.121-14.95 12.184-14.353 16.869.605 4.745 10.027 17.175 10.122 17.3a.209.209 0 0 1-.04.293.194.194 0 0 1-.125.043z" fill="#382732" data-color="2"></path>
        <path d="M157.023 132.477a.202.202 0 0 1-.095-.023l-3.238-1.665a.21.21 0 0 1-.091-.282.208.208 0 0 1 .282-.09l3.238 1.665a.21.21 0 0 1 .091.282.211.211 0 0 1-.187.113z" fill="#382732" data-color="2"></path>
        <path d="M156.525 133.489h-5.542a.209.209 0 1 1 0-.418h5.542a.209.209 0 1 1 0 .418z" fill="#382732" data-color="2"></path>
        <path d="M143.497 95.078c-.445.22-.874.459-1.282.728-.46-1.55-1.603-2.936-2.003-4.516-.463-1.834.004-3.728-.288-5.573-.153-.964-.583-1.778-1.128-2.533.329-.362.658-.728.986-1.095.123.146.239.288.347.433 1.039 1.401 1.367 2.884 1.367 4.606 0 1.091-.112 2.182.067 3.265.187 1.117.717 2.066 1.225 3.059.283.55.526 1.084.709 1.626z" fill="#F5E3CB" opacity=".4" data-color="4"></path>
        <path d="M172.774 70.883c-.052.486-.086.979-.086 1.475-1.05.075-2.1.06-3.142-.149a9.221 9.221 0 0 1-2.656-.975c-.96-.53-1.678-1.334-2.735-1.621-1.3-.351-2.888-.127-4.233-.123h-.351c.22-.53.456-1.053.699-1.573 1.296-.034 2.585-.03 3.837.097 1.823.187 2.993 1.875 4.696 2.465 1.292.445 2.63.501 3.971.404z" fill="#F5E3CB" opacity=".4" data-color="4"></path>
        <path d="M149.722 112.607a.21.21 0 0 1-.042-.414l11.723-2.382a.21.21 0 0 1 .084.41l-11.723 2.382a.212.212 0 0 1-.042.004z" fill="#382732" data-color="2"></path>
        <path d="M169.726 33.722l-.676-5.398c-.098-.78-.199-1.574-.517-2.293-.065-.148-.145-.297-.277-.389-.133-.092-.333-.104-.445.012-.073.076-.093.187-.107.292a6.91 6.91 0 0 0-.042 1.521c-.05-.597-.219-1.309-.494-1.844-.157-.306-.764-.878-1.092-.431-.101.138-.083.327-.06.496.15 1.11.31 2.22.481 3.327l-1.005-3.25c-.067-.218-.14-.445-.302-.605s-.443-.225-.618-.079c-.196.163-.157.469-.101.717l.889 3.917a156.736 156.736 0 0 0-1.01-3.064c-.055-.162-.13-.343-.292-.398-.169-.057-.356.064-.434.225s-.071.347-.058.525c.112 1.533.619 3.005 1.122 4.457l-1.125-1.356c-.11-.132-.274-.279-.43-.207-.072.033-.117.106-.15.179-.123.27-.134.581-.085.873.107.629.477 1.177.837 1.703.448.654.908 1.32 1.538 1.802.443.338.955.573 1.468.794.499.215 1.019.423 1.562.423.543 0 1.121-.255 1.35-.748.171-.367.124-.794.073-1.201z" fill="#FF9A75" data-color="6"></path>
        <path d="M154.059 164.569s-2.866.596-3.753 1.601c-.887 1.004-4.11 2.578-5.091 3.11-.981.531-2.102 1.105-2.055 1.705s.234 1.581.654 1.674c.42.093 7.987-.51 9.972-.839 1.984-.329 2.561-.262 2.74-.693.179-.43-.463-2.542-.83-3.802-.58-1.99-1.637-2.756-1.637-2.756z" fill="#F5E3CB" data-color="4"></path>
        <path d="M148.422 169.553a.208.208 0 0 1-.183-.108l-.623-1.121a.209.209 0 1 1 .365-.203l.623 1.121a.209.209 0 0 1-.182.311z" fill="#FFFFFF" data-color="5"></path>
        <path d="M149.797 168.715a.209.209 0 0 1-.181-.104l-.596-1.029a.21.21 0 1 1 .362-.21l.596 1.029a.21.21 0 0 1-.181.314z" fill="#FFFFFF" data-color="5"></path>
        <path d="M146.919 172.238a.21.21 0 0 1-.205-.166c-.001-.004-.096-.444-.412-1.302-.309-.839-.777-1.403-.781-1.409a.21.21 0 1 1 .321-.269c.021.025.518.622.854 1.533.328.891.425 1.341.429 1.36a.209.209 0 0 1-.206.253z" fill="#FFFFFF" data-color="5"></path>
        <path d="M161.623 165.733c-.022-.959-.062-2.397 1.463-2.77 1.526-.374 3.02.405 3.331.716.311.311 2.522 5.728 2.896 8 .374 2.272-.903 3.611-2.74 3.269-1.836-.344-4.928-8.256-4.95-9.215z" fill="#F5E3CB" data-color="4"></path>
        <path d="M164.612 172.012a.21.21 0 0 1-.162-.342c.032-.039.805-.957 2.251-1.375 1.389-.401 1.736-.413 1.77-.413a.209.209 0 1 1 0 .418c-.009 0-.337.016-1.654.397-1.317.38-2.038 1.231-2.045 1.24a.207.207 0 0 1-.16.075z" fill="#FFFFFF" data-color="5"></path>
        <path d="M164.005 168.37a.209.209 0 0 1-.075-.404l1.975-.758a.209.209 0 1 1 .15.39l-1.975.758a.22.22 0 0 1-.075.014z" fill="#FFFFFF" data-color="5"></path>
        <path d="M163.445 166.876a.209.209 0 0 1-.077-.404l1.98-.792a.21.21 0 1 1 .155.389l-1.98.792a.216.216 0 0 1-.078.015z" fill="#FFFFFF" data-color="5"></path>
        <path d="M150.632 68.647l-.011-.12c-.019-.108-.063-.213-.149-.269l-.019-.011c-.206-.108-.407.078-.553.198a2.86 2.86 0 0 1-1.427.639c-.157.022-.329.037-.37.202-.03.119.022.261.101.374.041.06.09.116.135.153.161.142.366.217.572.276.232.071.475.127.717.12.243-.007.489-.086.665-.254.187-.183.273-.448.314-.706.029-.198.04-.4.025-.602z" fill="#FFFFFF" data-color="5"></path>
        <path d="M150.651 68.528a5.098 5.098 0 0 1-.991.794c-.526.322-1.127.363-1.456.352.042.06.091.117.136.155.163.144.371.219.579.28.235.072.48.129.726.121.246-.007.495-.087.673-.257.189-.185.276-.454.318-.715a2.694 2.694 0 0 0 .015-.73z" fill="#FF9A75" data-color="6"></path>
        <path d="M150.621 69.259c-.041.258-.127.523-.314.706a1.002 1.002 0 0 1-.665.254 2.247 2.247 0 0 1-.717-.12c-.205-.06-.411-.134-.572-.276a.795.795 0 0 1-.135-.153c.325.011.919-.03 1.438-.347.445-.273.777-.575.979-.784l.011.12c.017.201.005.402-.025.6z" opacity=".15"></path>
    </g>
</svg>